<mxfile host="65bd71144e">
    <diagram id="HIP3nbAZw_EuaXWnEj3U" name="Page-1">
        <mxGraphModel dx="578" dy="692" grid="1" gridSize="10" guides="1" tooltips="1" connect="1" arrows="1" fold="1" page="1" pageScale="1" pageWidth="850" pageHeight="1100" math="0" shadow="0">
            <root>
                <mxCell id="0"/>
                <mxCell id="1" parent="0"/>
                <mxCell id="7" value="http://ics2o.mths.ca" style="swimlane;whiteSpace=wrap;html=1;" parent="1" vertex="1">
                    <mxGeometry x="40" y="40" width="760" height="480" as="geometry"/>
                </mxCell>
                <mxCell id="8" value="Positive integer division question, in JavaScript" style="rounded=0;whiteSpace=wrap;html=1;" vertex="1" parent="7">
                    <mxGeometry y="20" width="760" height="60" as="geometry"/>
                </mxCell>
                <mxCell id="11" value="Enter the integers:" style="text;html=1;align=center;verticalAlign=middle;resizable=0;points=[];autosize=1;strokeColor=none;fillColor=none;" vertex="1" parent="7">
                    <mxGeometry x="40" y="105" width="120" height="30" as="geometry"/>
                </mxCell>
                <mxCell id="12" value="Calculate" style="rounded=1;whiteSpace=wrap;html=1;" vertex="1" parent="7">
                    <mxGeometry x="52.5" y="260" width="95" height="30" as="geometry"/>
                </mxCell>
                <mxCell id="14" value="" style="rounded=1;whiteSpace=wrap;html=1;" vertex="1" parent="7">
                    <mxGeometry x="50" y="150" width="120" height="30" as="geometry"/>
                </mxCell>
                <mxCell id="15" value="" style="rounded=1;whiteSpace=wrap;html=1;" vertex="1" parent="7">
                    <mxGeometry x="50" y="200" width="120" height="30" as="geometry"/>
                </mxCell>
                <mxCell id="16" value="" style="shape=image;verticalLabelPosition=bottom;labelBackgroundColor=default;verticalAlign=top;aspect=fixed;imageAspect=0;image=data:image/png,iVBORw0KGgoAAAANSUhEUgAAArgAAAFoCAIAAAAzdB/KAAAAAXNSR0IArs4c6QAAIABJREFUeAHsvXtwVFW+P7of3Z100p1GkU7HwDx+PObWqOBwhXvpOOCpErHE+8MfL+efcxH/+DG/GuHUCHOYWyUzdXXmyk9qrDMjEGusO3XVAOf8zJxbA5IYEh4aSMhD5XkUDSJJuOIzQVCEzl65s9a3+5vV+9WPvbvTnV5UV1h7997r8Vlr7/Xp71MaFf8EAukhQAhJ70JxlUBAICAQEAhMHASkiTMUMZJcIkAIqQoGc9mCqFsgIBAQCAgEChEBQRQKcVYKsE8JcQJJFAqwj6JLAgGBgEBAIOA+AoIouI/pxKtR07S1jy47uq9hx9YtD95XJ7jCxJtiMSKBgEBAIGCFgCAKVshMqPOwtWe3wRNCVixdHBvoHRmkn28vdK18eHF2VU0oTMVgBAICAYFAaSAgiMLEn2dCiKqq9K+iZDFaQsjRfQ1IFEYGey+fPhSdNyeLqsQtAgGBgEBAIFB0CAiiUHRTlnmHOW+FTCUBmqYtWRS92d8D4gT8+8yvN2TeD3GHQEAgIBAQCBQfAoIoFN+cZdZjQp7ZvL5514tD544e3dew8uEH0ucKhBBFljeuW4P8AAqxwd499dsy64a4WiAgEBAICASKEwFBFIpz3tLrNSHkZFsjag1u9vfcuNidEVcYHR092dZoJArNu15MrwviKoGAQEAgIBAobgQEUSju+bPpPSHE6/XotAaxwd6bg70bf/5YmnIFQsj1j7t1RGFksFeoHmyQF18JBAQCAoGJhIAgChNpNpPGQggJh6cY9/iRwd6v3m9PxxqRELLy4cXGGm7296xYujipMXEgEBAICAQEAhMUAUEUJujEjo4SQr73vWnGbX5ksBeMDOyFCjSyEiGfnjlsrOHGxe66+XdPWODEwAQCAgGBgECAQ0AQBQ6MiVUkhJSXl+tUD7jrf3uhKzpvjhVXADPGJYuieD1fGHjnwCgjIhMLMDEagYBAQCAgEDBBQBAFE1Am0ilTCwPY9Z/evN42sgLZsXULzw+w3LzrRcoksorKMJGwFWMRCAgEBAKlgIAgChN8lk11B7Dln2xrtJIogMBg4J0DSA6wgGqL8vLyCY6dGJ5AQCAgEBAIjI4KojChVwELooB7vK4QG7C0SSSEVFT4TdUWMeY0MaFRE4MTCAgEBAICgTEEBFEYw2LilQghdfPvNt3vgTTs2PobU6ECIcQYZwluAe/KiYeVGJFAQCAgEBAImCIgiIIpLBPqZN/x/TGWz0knURgZ7G3f+6qqmiWAYKIIU/uGm/09wUDAlF5MKNTEYAQCAgGBgECAISCIwgRfCCAbsCIKNy52GyMiML9IzcqS8dsLXRUVfq/XkxI4cLDkLqMnuENRFAgIBAQCAoEiQEAQhSKYpJRdtNmAQfuAUZx1QgWjwQFYJ6iKsqd+m+5iOOw7vh+usekVUI3ovDkb163ZU7+t7/j+gXcO7Ni6BaI82fTWpk7xlUBAICAQEAiMCwKCKIwL7C40yrZbMkqIpmmqqlrVCLty3/H9prv+iHV6J2OKB6gBfCMrKvxWLWqaFp03Z8fWLVfPd6J5BIg09tRvg+gOVveK8wIBgYBAQCBQaAgIolBoM5JWf0ChsGPrlmc2r3/wvjq4xyDqp8EZqRMjMziwEip8euaw8cbR0VErv0qwf6yuDhs7CvVsXLfG9N7YQO/jP/svxrvEGYGAQEAgIBAoZAQEUSjk2THpGyGkedeLaHNAkzz19wydO3qyrXHjujV18+82CvY1TXvwvjr8ca8TLcQGepY/dL8u8tLficjV8526KyH2846tvzHpFgvUuOCe2c27XjQ1gRwZ7D3R1mh6ozgpEBAICAQEAoWMgCAKhTw7+r5pmlY3b45xywe6EBvs7X+7hQkY6G97uBlDKJr+yse8D3xLcIupBCI20Lv20Uf4i7GsYzA6knFzoAclH3iLKAgEBAICAYFA4SMgiELhz1G8h4QQVVGO7mvQ7cH8YYwlfNqxdUvd/HgeB7QJsDJOHBnsPZn4rQ/0gjakqii0SKp/oGfSpJARMk3TNq1bw1+pK/ez9BDGG8UZgYBAQCAgEChwBARRKPAJincPt3DTH/q6XZnK+VsbeTUEIeTB++pM9/6Rwd7rH3eDeQHmniaEmDYUMyMKwBKAoxh7QoUW1nKI4kBf9FIgIBAQCJQwAoIoFMHkE0K8Xg8hZO2jy0x3YtOT/W+38FxhdHTU1OwAtA8bf/4YIcTn846OjmqaZpU38sbFbo8nHkEBuIumaSuXLraiINCxt/a+qrOBKALQRRcFAgIBgYBAgCEgiEIRLATQBYyOjtrrHYx04fLpQxxXsMwGebO/B5weIReUqipWjOT6x92AFyGkujpMCInOm2Pjezky2PvJqYN18+8uApRFFwUCAgGBgEDADAFBFMxQKbBzSBSad71oZAP2ZxhXoPYKEHnJ6uKv+zqWLIrCuAkhK5YuNr0SiUL8Sk17ZvN60yvh5JfvvYXqjAIDVXRHICAQEAgIBNJCQBCFtGAa34tAKUAIWfnwA/ZCftM9+0RrI+7WRo8JvOWZX2/AYe6p32baEE8UqNLh4cU3+3tMrxwZ7L3y4bHovDk2waCwOVEQCAgEBAICgYJFQBCFgp0a8459aB1jEbd8Y+GZX28Ak4I99dtMuUKM+T6gyaSVLyWYPYKGIjpvzsA7B4xtwZkrHx4T/pDmUyjOCgQEAgKBokJAEIVimi4QKljtzTbnv73QtXLpYgiu3P+2+e4eG+hZ+fAD9hqKmwM9ICEgxDJr1Mhg73cfdwuWUEwLS/RVICAQEAhYIyCIgjU2hfkNIc/8eoMNJ7D66sPO1xfcM1uSpBVLF1sFT7z+cffJtkYrccLIYO+N/h7wj1j58ANU6TDQa2zuu4s9IlRzYa4d0SuBgEBAIJAFAoIoZAHa+N/CR3E2btVWZ57evF6SJFmS7C0QTbd/rHPo3NGj+xqsqMaN/t5N/23t+AMkeiAQEAgIBAQCLiEgiIJLQOaxGqodmDenfV+DqbUB7ujGwo2L3SuW3i9JUnTe7BNtjcYL0jxj1e7NfpH2KY/rQDQlEBAICATygoAgCnmB2e1GaACDe2a324ZzNu76sYHey6cPLbhntizLSxZFrbwVjDemeYb3m9CNGMwk8aTuEM+LQu4QABfZ3NVfLDWXMg6lPPZiWZ+F2U9BFApzXlL0iuZtkuXovDk2GRysdndQQCiqsmPrFqtrsjjfvOtFdMLkew/vpiWLokf3NVw933n1fGf/Owce/xnNLCXoAg9UTsuapoV/+YPqJ39Y4piXMg6lPPacPlylULkgCkU8y8xDYc6J1syUCDf7e6LMqpEqIFpfu3Gx+2Z/z80By3AI6ZCGr/s6jCETgCKsfXTZybZGnfQiNti7p36bKbEo4vko1K7DDhH+5Q9KnCuUMg6lPPZCfS6LqV+CKBTTbBn7yoIoz86UK7TvfVVK/rfgntlPrlvzYefrNy52p8MM+Gtig3oDRqAIG9etsYzu3N9zs79nx9bfGEckzriLAL9DlDJXKGUcSnns7j5NJVubIArFPfUQ3Tk6b87l04f4zdu+HBvs3bhujcz9U2QZmMOKpYu/er/d/nbdt3y4RqAIKx9ebBOLCW/nbyzuaSjU3ht3iNLkCqWMQymPvVCfy+LrlyAKxTdnuh5TewVFqZt/d0ZcYWSw9+r5zoF3DvQd3993fP+e+m1LFkWBOWRqJnn1fCd0CZJEpJ+5ShAF3VS6e2i1Q5QaVyhlHEp57O4+TSVemyAKE2QBoM8k/l5PpxAb7I0N9lIbhf6e6x93g0GiLMsL7pm9/dktOsMCmwpPtjUe3dcw8M4BK89J03ubd704QdAvvGHY7xClwxVKGYdSHnvhPZHF3SNBFIp7/vjeZ2fbqNvC+99uic6bozBVxMZ1a3Tf2h+mTywgZZQI88xPn4vldHaIUuAKpYxDKY/dxUdJVAUICKIwoVYCs22c82Hn6/Y7uv23317oWrF0McRwfHrzevtAjfZVWX37zUfHVz78wISCvmAGk/4OMbG5QinjUMpjL5gHcUJ1RBCFCTWdaK/gkCvcuNiz9tFllCvIkrvhFkYGey+fPrxi6eIJhXvBDCbTHWKicoVSxqGUx14wD+JE64ggChNtRhM5oDP2mdT9+r9xsXvJoiiL9zzHJk2U7i77w6/7Op75P/6JemooSv5xB4+MXP/N/7iwxex2iInHFUoZh1IeOz4IouA6AoIouA7p+FeIcoXLpw/b79z23371fvsDCxdIkrRx3ZqMrBSN1cYGek+0NtbNv3u80CGEwI6Y078Q+lDHRfIzZCc7xETiCqWMQymPPT9PWcm2IojChJ16QsjKhx9wYmEQG+zd/uwWpoCQr57vNG7/6Zy5OdDDYjb/l/EFOj9EwchCeOqQOwSc7xATgyuUMg6lPPbcPVmiZkBAEIUJvhKySAbBb//fXuh6YOECWZabd73In09Zjg30fnrm8J76beMoReCndryIAlKH3DEGd4dW/eQPedyKqFzKOJTy2ItoiRZvVwVRKN65S7fnmQZ41pGApoZ6SZLWPrpMd97q8OZAb9/x/Y//bJxFCDp03H2T4vafRQEZg66HWR8SQqqf/GEWPTG9JbLxP2Xdk/G9sZRxKOWxj++qK5HWBVGY4BPNgivcff3jjDM4AA+IDfZ+e6FrwT2zVVVJR4vR1FBfaBQBJrhwiAJsz+7SBbf2ieJlCTjLrnCmYsRBrIEJ/iof1+EJojCu8OepceLExTE22Lt753OKoqS0Z9y98znV48nTmDJsptCIAk8XMhyK+eXO94li3B2NWJQyDqU8duNKEGdcREAQBRfBLNCqQKgwdO6olbIg5fmb/T0pbRQKPB5zYRIFzPtMCHG+epzsExODJQCGpYxDKY/d+RMkarBCQBAFK2Qm2vk99dsyCrGsYw+QFUJ3kj+EnNGubHi5gL5giYK7ooXs9oniNWC0WiqljEMpj91qPYjzDhEQRMEhgMVxO4R2Tqk74Df+jMo0b/XPHyOE3HLLpMJEpMCJAooWnKOXxT4xkcQJCGAp41DKY8cFIAouIiCIgotgFm5VhBCPR3XoKmlDHYAoFO74R0cLnyiMF1eYkCwBlmJG++UEw6GUx17IL6Ii7ZsgCkU6cRl3GywVnGgfUhKFgtU7QFhrU2/AQjsJ3hAZz67hhjT3iQm2OxpgoAQxHT+ICYlDKY/duBLEGScICKLgBL3iu/fovgab/T7rr2KDvU+uW6PIcsEiUhQShTzbK0zI3dG4AlPulxMYh1Ieu3EliDNZIyCIQtbQFd+NhJDHf/ZILoQKsYHex1YvG5dUT2lOQxERhfzoICbw7mhcEjb75YTHoZTHblwJ4kx2CAiikB1uRXyXW6kgefHDV++3l5eXC9WDi4oMtzwRTPeJCb87Gp/PUsahlMduXAniTBYICKKQBWhFfYuj4Es8OeDLe+q3MXvJAo22VEQ2Ckg13DJWgLHzevoSZAnwxOr2y5LCoZTHXtTv6wLpvCAKBTIReeoGIWTJoii/xzsvxwZ6VixdnKcBZNtMcake3DVW4LlCSe2OxsWC+2UJ4lDKYzeuBHEmIwQEUcgIrqK/mBCiKoq72ocbF7sL2ToB5qwYiQIYK7i15gghJbg7GtErZRxKeezGlSDOpI+AIArpYzVRriTkmc3rnQsSsIaj+xoKH5riJQr5tPxw2BYx+5fp2jDWkWkNzq93iINpB4zjsjljWkN+TuZi7KY9txk+fGV6V3GdtB9jEY1FEIUimix3ugoBFa6e78Sd3knhxsXuB++rc6dnuaylSImCc6GC/auK/1bTtHQsKPlb+LKmaWhggYV0KuSn3VgJptnk28Iyf699GW9JWUgTB/vm4FtsyzguhMhYMA45nbZsrsFupCy4OHbT/mAHUgLiOgim/TGexB6mUzDeDmfgXvsx8gO0qqdwzguiUDhzkdeenGxrdMIP8F5I8ZDXrmfVWFEThTR/5BlfbfavKtMtyoguX60rFRqbgDOZzhH/qsVOgkEGHkIhp902Die7Ro3TAWd0wzQ2x5/RDZwQkuex853BsnNAEASs03nBIVamJDg7wKEnzkeUuxoEUcgdtgVcs0vah28vdNXNv7uAxznWtUw3Iau39ricN30ljY2NlVwZoLEhh9XC+13XVatDh21h/Annc2TEwarP/Hnn22HKntt3zDmAziVYPCBA2jJlKjYguEgXnGNlnAsnI3VxaLopcOVQEAVXYCyySgghK5YuRqmArkATRQ70mHwGe/krYwO9xSJOgBeWzQuowL9KZ7t1/uIz3SScV2t8n1o9Lc7bimz8T84rMcXBqs9wPovfkdktOXswx2XsVsjkDhNX9lTnWOnmwglLwMWQzpNuBXhOzwuikFN4C7RyQkhZWRm/69/s7xk6d7R514t76rdt/PljK5YuXrF0cUWFv6LCD+UVSxdv/PljO7b+Zk/9tqP7GvqO72/f11As4gTXiUL1kz80fvBpz0VB91YyLiznLz7TDdJ5tSl7jmNx2BY05LASmLv0+zw6OurKDpHmmrHvWP7HjnPHF3JHEXiUHNIF51jxc+HiGihMriCIAr/CS6WsaZrX6/mw8/UPO1/f/uyWpzevj86bg4OPK8wIGeU+ha9Fw/6bFpy/F/Alxb8gsC1wUufjGuH1rhRSvj5cGaBxaOh8n/UojHUiaLqCw7ctNJQjHHRdxUOHfc4UVXsH1zyPHUHAQn4oAg9ayucC+6YrOMcKF7brayDrQenG6OKhIAouglkcVUHKaSnxz+NRFUVWZRloAdG0ZT7fb2+95Y9TpuwMh/8Sqd4diWybMuWJYHCRovDUIX49IUUxbOfvBXw94QvCOHDn2yq2YizYtOuWyMS0CYfQmdZpCp1xyBmdgYYc9hZaTLPPru8Q9uNN2at8jt04g3lGA7HKblt1jhVMR45GnXKujfjn9IwgCjmFtxArJ4QoiiJJksw+iqI8EQw2RyJXb5l0w+8f8Xo1SRrlPoSVb8iyJklEUW74/Tf8/qu3TDpXHd42ZcojZWVFwRicvxf4F5PNvOZOtGD/7nBlgKZNOKw5zfe4w1bCv/wB/Np2Xo+pCsY44znaIXCZGQums8N3LG9j5xt13WLROPCUZ9JcY3y3nWNV/eQPc7cGshgRPzrXy4IouA5pUoVpOrYl3ZP7AxAbNEcin06efMPv1ySJkgCOHBiJAmEXwGWaJMUYb4jJ8jflZeeqw42RyPqqqkJmDM7fC/i2Svm+hlen62oI+3eHKwM0HZrzmk2r1S1zh61gEw7rgVnG2nSdxMPc7RC4zIyFlL3Kz9gRBCiMCxSm4GT0snUFK2M3XDyTcrp1E5HTQ0EU3IcXdfxE0xRFcb8BhzUS8pdINUgOdMIDnh/wZWAJhPEJYBXAFWKyHJPlG7J8XZa/VZRrwUBHOFyYjMHF90KaD7CLLeLbx6ZpV5ozrd+5PsW0Wt0qdth/bMJhPQA11qbrJByO19Zo36ucqp9MccizISc+BVYFeyatG4Ir68SqJ66cz2g4utG5fiiIgmuQohf1jKneujsDLzw1/09Pzfd4Ci+hIiHHwmEr+QHPD/gyShRMicJ3ivIt+1xTlCFVvRYMNEciYNOQEc13bTIMFbn4Xkj5vobGne+vxteNTdOuDNCqfoeVW1XLz5LD3Ret/Bx2FTC36bAr9RtnNp0zNr3CJZdOPfbXpGwFZ20cobAaQvqbawF23jio9OcCJyVHhVInCrC7O9zMwNZXkeUZU72bVtVcemPucGtkuK32V6tvd1hzLmadELJQlomi8DzAvpyuREFRvlaUK6r6pap+5fF8Xka1Ek8kVBK5GEv6dbr4Xkj/6XWdK9g07coArep3WLlVtTh9LtbvsCp4Wdt02CGhMW4G6Z+x6RUgmeux43xBYRyhsAEtTa7gClY23XDlq5QzrpuR3B2WNFFgZn10d58x1Zf1jq5pmiorIEKgFKGtln5aIy88NX96rVctPIkCTSApy+eqMxAq2IsTrsvyd4pyjX2QKHzh8Vz2eD7xej/xes9Vh387+dZRRspyt5Tta3bxvZDR0+tiu2BkZ7VQXWnIamgOGY9VtThlDjvP1++wKni/8xViJ92S7We9haDUhO8SX87p2PmGCk3poIPUavr4IbiCla5d1w/TGQg/qNyVS5ooaJq28t7Q0BuRadOmZpcoWdO0GVO9Lzw1f6jt+1SKkPgMNM+dXuv1qIWnd2BL6e+bzW9vvcVeioDfgpJCZ6CANgo3mI0C6h2uqOoVVf3C4/mMsYRLXu/HPt8Fr/eDsrL3q8PjqIxw8b2Q0dPrcIs1vnqsWndlgFaVO9wjU/7Ic9h5vtsOqwLA+Qr5l68rlRvnNJ0zVl1yvXt5ayidUWd3Tcr15nA9Z9erLO5KZyD8AshduUSJAigLNq2qGW6NDB2IZPG7n/48ZjwjrmhIUARaYWtkeV0oizpzN826mgkhixRlxOtFNmBTQL0DzxXQjPEGEydQS0b2uaKqQxxRGGBEoc/nO1tefsrv/49gcNuUKYsUxepnsa6fLh66+IpP503K99zFpm0891xpxWZoDuu3qdn5W5v/qe2wn/A2t+qtK5VnsWHYzLvrK81q7HxDhal04IFNucWO41Ty/UxZTmc6+KnJUbkUiYKmabIkUZbQQmUAn7/+o0zBRUHCl22zUIqAhT89NV9R1UzrzPf1hPxdI2DDD+ArFCfotA+mRAH0DkAULns8l7xeIAoflJW9V1Z2yu9/2+/vqKzsCIeXlZXlebwuvhcyfXRdbNpmw3ClFZuhOazfpmaHREFXs8N+wotbVyeu1XHcIK26hH1zCCPuWCkbcgVhbC53BfuBTIxR8LOf03LJEQXKEhTl3rsCVFnAiELn76em/wMXRBH33hU489coMgO+MFjYSgdcTISQJ4LBdIgCShRM/R14iQLoHb5kEoVPvN5LXm+/z3fB5/ugrAwkCm/7/V0VFe2VldvCYexJfgouvhfsX0DG4birfbBq3ZUBWlUOm5CTyBA2NTtUeOtqzh0OrtSc9b6oG6ZxmeWNKIwjW8oIPXvExnc20x+I/ShMl0EuTpYWUdA0bXotdUzgJQGbVtUospwOuHi7Ud2AXGHTqppCVjrgMGleKJ8vHe2DkSjwBgrxCApmegcwUOjz+d7jiEJHZeWbgUBzTQ32JD8FF98LWTy6eWjdlSbsh+akCZuanVSLARlxFTmsDd7gpr11peb0dwjdlaZdwlFDwZUe2jfkShO6oeXo0F77UCwDsZ8O3QLI3WEJEQWQJVCNA/NKgK196I1I9I5AOpaMyBL425EfQOF0Y3TmtHwL1bNbHOD78OnkyfZCBXuWMBZqKZkogL/DgNd7wecDonDK7z/FxAmCKDh8LVq9OFx58VlV7nwfsnlrO+m5scNOasOpMVbr1u91bAK0SMYcpFZneDsMq0c+d2PHFotFnAA4m86j88XMT2KuyzZDwEnJQ6FUiAIhRFaUlT8NUVkCTxQORAL+1LZ1aJRA7+VuTyIKhRo4wXIZEdIciWRNFCAmI4RasrJkNNU7HAwEGoVE4Zc/yO4VY/XiyMMm4VCHkoueG+vMHQ6u1IyTns7Gb/nkWnzhSg+NkGJrrtSPCOShkCN6atpzHcMzvSaLkzbTgfOSh0KpEAVN03Qah7hEYX9EVZXKygobrDVNmznVa2WUgFzhVGO0MAMnWA2NELK+qsomijOKE7CgM1O4wSI3g8sDGCiAJSMaKPSZGSgcFKqHbFnCOBozwipyslVYvfLcrdNJbfgeN+2qKzVDE6b1Wz2n6Z93pYc2fXOlfgTZRqbCX+OwbDUcF8dS/eQPdbTPIaXmh2zV//RXhStXlgRRgJ3e1LAgpSUj3HvgpYVICEwL4BJZBM4OulVDyA2/30aogBTByjeSj6CAjpGXPR50jERLxq6KCtA7IFFI34ZU1+ssDt19L2TagTy07koTKd9KTlqxqtyJNFv3gnZLQWDa1cJ/+zuZHdycTMcOC96V+rEh49xhK07MZrF+KFgNx62x5HoUVv3P9BXk8PqJTxRAa2C+07fV2lsy2t3LBU4Ybo2cbozOmOor2AhLlqsklfYBiQLKEnSWjGjMaIygAHoHdIzkiUJjTQ01ksijE6lb7wWb3/SWII/SoJS691fWh1YvDleasKoch+akFdPKC6pCnBTTrrrFQrJbQjgFNgUnYKYcu4vDN5qg6gaVB06Wa6zcgstqKeoQy/XhBCcKmqYpkvTCU/PNxQAHmCWjRZRlsF60ujepwpZIYaZ1SLl6CCGPlJWZShSQIkBBRxQgICOoHq4lUjygROETFkHBiii0BIM7q6tT9s3dC1x5L8DLNItHNw+tu9JEyqE5eYObKoyddNu0t04qTLlZulI5EAVXsszonhFXumeKKjTkRPaD2KZkCdCWk5XGt2W66vKzi+d6OnSzn9PDiUwUaCoHWaFBmhMhE5J2dxaTsby83BRfQsj0WhqbWXeL6eHpxmgoVJW+V2Q+Re6mo0s6aa19sOIKYMZo5fIAwZutIigcDARagsE/llIcBYdxAvi3ns2P0by9lZw0ZNyE3K0t1xuAW7sXzilsY0Aakp7KrA6cgMl3ybRxVypPkyVAB9xC27jqcr1OsP+IatYF086bTlBOT05kogCKA1PTBNjvbWIyEk1LkyUMt0ZoKMb0IjHAAk3HGzOns55UuUWIRmAJo5LEWyeAXAGJAkoUriWSRn6RSPFgTxRoSsn8/nPrNWezVVsNyMWmbVp3pZV03kpOGjLW76Q2U/WwkwrxbW7sJ06uK/VjQ1hAxoANZVFwpW9WY89p5VaDzV2juasZx5KHJrCtXBcmLFGgSR0V2X6zv/TG/2yKbzxZVHKeJ1NZwnBr5LN9s+ydHeI/FwgZJWR0NOnj1i8J01GkefLv4g2bBFEoVEDVAx+8GYkCJo3kc0HxLg+8gUJTVdWiPFonAA6uPLTwWrd6k1oB7mLTE48oZC1nVoFFAAAgAElEQVTNtpoFV9C2qhyIvoumdkgUcGk5UUnkdOyuVG7K7aweHLfQNp1NV4ZjWjMOJw9NYFu5LkxMohCPmnBvyGp3h/NAFHSKABsXCdPaTjdGFVXVVQJLnD3zNL3kplU1Lzw1/4Wn5qN44/3/cXvn72t/tfp2j2ecs0JALGeiKEZLBT7RgylRMHV5QAMF01BLBwOBg8Fgrpe1sX5XHlp8mxvrtzmT9V6o20XsW3dlgPYvPhijE4Gwrn4nfdZVhfg7qRMBt6rcOQLYhH0hOwFDTsfuvHJ7VHEGdYUcteu8WhvWjuvEfpbT+TY70HQYOj+csERhRhqRD878tY7aMSgK4pi+m0OcNLREqN+Equq0CVDPplU1Z/4ajYd4Sg7T9B//dvuKeydhu+NY0DTN5/WYOkmiOIHXPvAShZRJI3mXh3YWvLklGOzIuyUj8LZ0Hst0rsno0XXlfcT3yqp1Vxqyqly3PrNuS2dZlnU9NqpuJ3UizilxcMKWsJWUhUzpQk7H7rzylKjqlhkc5qhd59UKomA6X8V0UtO0e+8K8AkdTIUBZ/5ap2laWSKTIZVDQFbJ5E3d9F44Odg8VxezOSlrlFk9Q29EXvmnSLlH9vm8444pIYS6dBLSETbPJAkUwYoofJecXfpLVf2MJY20MlB4k1kylhRRcFecMO4bpPN3N79bZP2y5ivRPURZ18lv2zb1Y3P54QqwGxkFltgNvpDTsTuvPB1U+eFAOUftOq9WEAXjZBXTGfg1nzKQ4nBrpOXPC2VJqqjww/A0Tau7MzW94HnDgZcW8dBgPghUMfAXD7VGOn4/VUcs+NvHrUzItilTjKoHsGQ0sgQwZsQICtcUZUhV+ezSVkQBXB525z1+83hJFFx5GaW5gbnSVpqvcid7JN9E1n3mK9E9NVnXmSbOfHNOcOCbS1lOU7SQ07E7r9xm1nhUdeUcteu8WkEUdDNVTIdgnUAzPyUHRDI9bPnzQkmS4Jf9mNKhJULTT+s+prU1RV7Y8r8g2YcaqPmkWT6IwtE1GKcTYjmnQxQg2hIEUTDN8nCZSRQ+NmSX7qisbK+sPBgINFVV/XbyrbBzG3uSuzOuvBfghZ7++851cYJN064M0KZ+3dRk3RzfRNb48JW41TF+t7ap39gcBPnnb89ROWWvsp4UvsNWrTiv3KpmHaS6wxy167xaQRR0M1VMh4SQuHWCmdh/jC60RIabqEQBbAuAXtTdGdDzA1u68EXrrOgdAXCMpCaQ0yzzQfzHv94e8Cs6O4bCgpUQq5TTaMaIvpG6dFAYk/ELj8eUKPAuDy3B4BNVVYQQ+/waroPjynsB3qdpvu+y3gX5t7aubNO0KwO0qV83I1k3h01kXYON/sUt0RF2Ujdqq0MQLeTOGwIXHv4sMe2JE0hxpVmN3XnlVjWbjgVP5qhd59UKooBzVHwFTdNWWDk76Hb9lsiZv9bBCMfECa0GWYLhLkommIBhsHmu31+uqCroLKyUHV/9v5FJk0L2T/j4A03ItWBAJ1TAUArIFXhLRlQ9AFEAAwWjy8PbXHbplmBwf1XVpEmh/I/XlfcCvq9T9j8XLKGgNsis8UR7Ric12OCfdbW4U6bcAKxaR7qQO8aA6Jn2Iadjd165IAr8GkuznB1opsvDyckJ5fVA0wdg7ATTDT75JBCFJG1FE5U0JH2SbxkTOYCJg6JIkjRjqtc8l0RrZOiNSN2dQUWWg4GAk3nK+b2E/NHMTIE3UOCzPGAEBQi1NKSqSBQueb3G4M2gd2gJBo8EAmg9mvNBcQ04f83hg23/6II1K17sYiFlu87bsm+Cg5Nmr8h6O4RWsp4R+05mXS2Pnn0TPA6m5ZwyBpu+5XTsziu3ZzmmSLoS1dQUMefDSUko89CEFWiun59oRKHuzkA8YLPVBo/nm6hEAV7r5R6JygN0FEF3iDcmCmDiYJNLYjiRA4IQMmvWrJSTN45SB0LIIkXRRVMAiQKKE3iigOIEJApfeDy64M0630iwZDwWDo+Lu4crDy3sJVbvndxRBJt2cVG5MkDToWETukLWLUIrWd9uH7Qn62pdJAoIVC4Yg812m9OxO6GGiG1GCyyniqScYgULIA9N4ErLdaHIiIL9VhqPu5zYyMd+/fNnuO3/s32zKstlWZZX1IU+f31WCqIAN2JVrZHPX5+1aVXNplU11A+zKa6PGDODaI28sqFaUWTeNCEpSiPGYKMRG+lPNEw8YT/MXK0JQ9IHjKOAXAFVD2jJCDEZMR3UJa/X6PKAlowQRGFcRufKQ4sbNjd1tJgjRQO+XqFQaBtk1pA6IQopd5qse8WjnbKVTJ9BV3ZZ7KFV93I9duf127AcU0idt2ilsHOlZquJgLHkoQlT0HJxspiIAr+VGrGg3/KCAdzRocDxAyQEn+2bVXdnQFVl6iXRVkvP/43pHfi/ZjfGKUhrhEov2mrRaoFnCcOtNBaTSgMvxsM2E0KjNNbdGYAojS88NX/Tqpq6OwMzp/ni17D9hwafVsdiQBlHmqszBqKA7pGogACiEJNle6JgE7z5tUiEZ065GouhXlceWnxT579g/0rK6W8vA5bxE1lvfjCW7NhVAeJghY/ufNZwGRebFQiuLHKryl1cY+n/VMhukfCIWQ0n11i5CJduIY3LYTERBXuAxqIgmG7tFic/f33Wmb9GqTjhb4wlGP9a3KgXVxj9J9tqv2yjlZ/5a/TSG3PhQ2UPCVtI9KL8sm3WpTfmHnhp4QtPzV9xb6juzoDHLCa0/fBd+JaQTydPNtozalxeKEwH9a2iQLQlPssDuDz0+3wQvPlsefmpZEvGpqqq5vEIouDWQ8u/gPJcthcnuDVAq7eq1erK7m1b/eQPs94AUvYwuy7pZjNlK1aA2J/PetRpdi/XY3elflDtp8MVXIHLaipdGYtV5bAM8tCE/Xpz8dtiIgog7zUdvKZpHo9KBQMgDLDa3XmZAXKCRguKgBdgwVgtL7cwcoXMz3zZNmuo7fsHXlq48qeTmDqCaiXy9C85jaSV3kHnG2lDFE75/Uai0CiIwi9/oHvvpzy0fx/B8hiXt5IrjaYcPn9BYRKmdJ5QV7Y9gMJqPbgyHVaVu0VGcQhW73M47xZcVsPJNVZuwWXV/3SWnIvXFA1RIIRE7wioqmKkojQOsUdVZZYrEjQIxh0dz+Cun10B68GC21wB9Bdfts068NLCe+8KWj1OLi4CWNOjLD4jJIJCpQOKE2KyzEdbwnRQX7OwjGjJCC4PmA4KfCPR5WG8oi259dDyO1Y+yyl3R7cGmOlbyZW3bfpIptM9V7qUsiF4Ko3vItOn0nUrFqvu5XrsLmpPdHQB8XSLH+Cisnp2co3VeD2SpivQ+cliIgrL60I0oTOXwwnGTxM7yfLoKKGeC6YSBbQ5MCUHjZFhq8/f2Fe6u5AiQCE3RAHowlDb96mhQ441EYSQqmBQ07QngkFUPdi7PKDXA0ZbApeHgYRvJOgddEThjWAwHJ5CvViLOc00voPyU7B60+ke/jy8+HQtwqswayfJLNCz2iD5juUBB2wCTPNwkzMtuL7z2YjusWNZYIu32IPsShPYVq4LNmNxZSA29QuiwD+V+StrmrZpVc2vVt9uZPEsfIIyRhSQFpgqGnDXtyIHpufxLizwdCF3XIFFg37hqfkzpvqMA3cRfSBby3w+JApQQH8Ho28kpI5EonDZ4/mEuTzwloxWRCH/MZdceS/k+r1mrN/+TcQvAFcGmH5z2LQr7RoHbnomne650h/7hnKx95uO1+akaQ/zMHbXhQo2Y3T+lQ3Jzg9WzodgOtH49OWtUBwSBU3TFFk6u3P6e/92+4ypPiM6bBMlg69Mt7RJxA0ehASmbMD+JF8D4yJDTZEhpAvIFTK3S9D5SugPWyLDbbWbVtXkgSsEKyt5oqATKqBv5A1Zvi7LEEEBwzKCJaNOosAHb26qqjoSCHi9HvquqQ4bJzGnZ1x5Lzh/7DOtweZNp4PLlQFm8VZypd00YUkHDVf6Y4ODK/WnOV6by0yhcKVvNmOHJedKKzZDc+sr+4G4Mopxb0L3EsjdYREQBUJIKFQly9Lw7sjQ7siKeyfp4KC/hhWFEI3mbNRt57pDeyrAf7vbQh+RqPCFp+YvrwstrwttWlVzupEFa8odV2ilXCHXcgVCiM/rueH3A1dAl0gUKiBRQL2DaRAFXqKgIwptgcC4RFtySwzo1isszXpMNwPd4sfDPLz4sC2+4Eq76QBi/1LGLrnSH5u2XKk/nfHaXGPVPVf6ZlU5j3A+9U02ONh/ZT+QPGCVhyZwUnJdKA6iMGXKbTOmeod3R4Z3R179p4hOCE9jMMvypElVKSQKPA/AMhACVjPUn/S3kbaot2BgXOF0Y7TuzoDXo3o86vRa76ZVNYPNczG+gl4q4IqYoYkGZlByqd0nmnauOoxCBZ4rYAQFECeA3sFIFCBv5HtlZWfLy3VZHpqqqjqqq3O9oK3qd+WhtX8xufttRizBLSZk/241xTZvsug0++bKRNu05Ur9DpeKVfdc6ZtV5fzsu9KQQxBS3m7/BLkyBHus8tAEPyk5LRcHUQiFqpAoDLw8Xad9oESBJVwwFycgJzAWrPiB7rzxRnbm89dnsV/5Xo9HlRWl7s4AFS2AXCFbZvBF66zB5rmnG6Mtf17Y8ueFf3pqPhRa/rzwdGN006oar9eTowVBBTOS1ByJgOODTu/A2yjcYHqHa4qC8Zs/4/JGgkThlN+vIwp7QyFBFFK+3cBUzf4dZ7oAxvGt5ErTKZFJExNXOmOzAbhSf8rB2l9g1T1X+mZVOb/q8sYO7XGw+TblaskDVnlogp+UnJaLgygEKiuRKAztjqy8dxIvVAD3yBlTvTRuEmzq6K1g3OPtRQg6iqA75GtLNDH4xtwVdSFJkoCsxLlChkRhsHnun1igxuV1IZ/PB7Upsuz1ehRZllnliqx4PKqSMw8IahMqy82RCKoeeIkC7xuJqgcgCpAOChNMG30j3wwEWoJBIVGwea/hVylfcFavg3F8K7nSNCJgWkhn9wJkXOmMTXOu1G86xvRPWi0SV/pmM3Z+7RUyV0hnCHnAKg9N8DOS03JxEAWfzzdjqpdqFtjODUIF5ApAFBRVoRdA9CR+R9eVdXt/+oe6ehLGCsN/iww2z627M1CmSooiz5jqpaYSGH4xFWMYbJ67aVVN9I6Ax6NSWqCqqqKWlZVVVlbgiy8YCFRU+OEzaVKoKhjM1ZogxIoo8KoHXerILzyeL5jLA1gyGokCpIPaGwq9yXqOE5erUZjV68pDm/6rPLsrrTYAswHpz7kywHTesPqGWVywXCut0+9YrnFwpf7slgfcZQOFK32zqV839a405wQKq3vTeY5c6bw9VnloQjcjuTssDqIQClV5vSpvPUC19TR2Av0HxoyyLMWJgm5Hx8M0OcHLzC4B/hpvwdqS4zlCgiiqg5CkTatqPts364tWFq2Zt3DEcoJGvPHSwum1Xpnlqs6p8UG6CyhBFEDvMCpJRkvGG1yiB/SN1AVRMM0buTcUaqypYUEUxiGThSsPrdWLyZXz6bzdbObRlQHav/hy3boNjOl3LNc4jLtvpM06yfXYdQugMIUKNvjw/c8DVnlogh9RTstFQxTKy8t4ooCWChDkhMrk7YmCvcbh5ciw8bObneS4wsAr08/sZEILoAucUGG4JfLZ67NW1IVkRZEVZcqU28AhYrB57mcWeSkHm+dOr/VKiX8zZ87M6UynVTkXxRm4AmofeIkCqh6uqOoVVdWFZfygrMyKKPylhhqiejy5MrOwGaMrD63NTubwqzTfbrkeYPr7sa4nuYY3fXxc6YkVDq5U7mSpWHUMpsOV7tk3YZz3XAuTMoKrQNbJeE2HbnZcPCwOohAOTxkdZWEScNtupO4PmqZVBWmQY5/PZydRwLuwwIsNgCIgLcCvkDqwu4Z2R5bXhWbUel/dUD3mB4FcgQV3Ot0Yhb1fliSPR/Wxf8vrQn96av5n+/RprIFYzJga5wqoa3BxdjOtimjatWAA4zcjS9BZMvJEYUhVwUbhE693wOv92OdDotBVUdFVUQHxm5uqqvaGQrvHKdGDW04BGb2z0ry4+skfpv92s5nQ/G8SfGdcad0KsUy3Lqt60j9v1WJOh5lO9+yXiivdsxo7P918uXDkCvbg8H1264Vgj9W4TIdumG4dFgdRuOUWmiHp7M64jQKIFoYaaUwFkCgoiuJR1c7f145t4eDZiMzAWEAekGZhd+SVDdUSc68Y03EgUUgUmE6EGiBOmXLb9743jVkiSpXlcvQOml16LMJ0ItT0gZcWblpVc+9dQapBSfxza3YzqocFuJQhjoJOnKAjCuAbiS4PKFHQRVt62+/vqKx8MxA4GAgIomC6DWT0arOfzfF9K+V0t7B/HetgySkOrlRuuhLSOZlytbjSvYzQBvBzOvvpIBP+5Q9SgpPPdYKwpNl5m8uymA7dSF05LAKikBinnijQmAobqjFeISFanChkoWVIhyvsjgy8PJ2aFEgSFSpghMcERQDnzNONUVAmLFkUjQ32fnrm8MZ1a2TGF6J3BF7ZUE01EfwtLTR35aU35r7AvB7q7gz4vXKCMOQxdSQz9Sjz+Ua83kwlCjZEoauigicK45Vj2q0fEDbPc6ZfuSVISDwdlGdm2gfj9U7eSq50wNilTPcAV7phhYMrlZuOMeXJdDZCV7pnNXZcaaaF8eUK6YCj63YesMpDE7pB5e6wmIgC5QE6wUBjnCvQGM+KMqYU0F0Gh0adQjr8IPkaKjBQlBV1oTGhQrK9wmevz1rOvCW9Xk9soHdkkH4unz4UnTdHkqQyVaL3Ns+Ne2foGENL5PPXZ535K42XMGOqV5XjjCF308/XrGkaH8KZ1zvoJArfKYou0YPOmBEzQukkCoIoZB0mgZ8p0/K4v5Vc6YBxv8x033KlG1aNulK5cYwpz6S5EbrSPauxm646/iRwhfybLKQJDt9Vt3452GM1vtOhG6/DwyInCowB0G21lkY92rSqRs8kkCIk7/cmposvR4ZfYh8o4N/kGzt+VytJkqIqHTo1B+cN8aen5tNACLJ89XwnEIWRwd5vL3SvfXSZx6OWqVLdHYEknsHTBSi31UI0JxQwOJzmlLcbk0KZBlyCsIzpEwUhUeD3ANelCPy0jvtbyZUO8HBB2f5dzCMAZVe6YdWoK5Ubx2h/Jv2N0JXuWY3dCLXpmTyLFtIHR9fbPGCVhyZ0g8rdYdEQBaJpVGBgKipgcoUVdSETkQOYKCZv9nqWAPzA5i/evjtyZsd0ShQUWb/Zc0QBTBl0RAEYw9Ob19PbZYWGfIaoD9yNejEDEzAceGnhvXdRg83cLYJ4zYTsvO02PtoSL1TgEz3YEAUwZkSJgs6YsTQjM1Y/+cOcUgSYPodvJeedzNEOkem+lVMc8uwbmemyyenY03//5Ee0kCk4uv5nihU8ILq/9jQl0yZM+WKm6183TLcOi4MoQNBAS6KA6RhMaQRu81h4ifk92jAD41cJAQOaKSiK8sqGaso5dDt9I7V5pE6SsvzpmcMoUYBCbLB347o11IESFSXYeazHIGAYbJ6bB67AJ3oAisALFZAoQBwFPn4z2ihc8novMK8HI1FoCQYhhHM+GI/Zw+HKQ2v6JJuexBeK/avErKdZnjMdIHbDvuBWJ037YIpP+icz7ZtpH+yHj9/at2Vac/oDyejK7HZB0x7i6OwL9mPPYlHmji5kB45uCEasbPDJDhxjE7gGbNrSfZVd07rBOj8sDqIAKqWZ03zmEoU0+QEqFww84MzO6ZtW1VDNRfJX+jOMamxaVQPmipHJCg2roGu9MWKqekDG8O2FriWLqMFj3NCBj+yEXCE5mtNwU+R0YxTNNp3PurEGoGKfTp5sasmos1FA98ivFWWIi6OAXg+mcRT+PRQ6Fg4ryjhEW4L1o3sCc3c4Ls82vpdxXPnvhrEP2JnsClkMwdiHLCoxPiCmSwjf+24VAKWsO5y7sZsCks5JvksOUXIIjq63fMdcYR66+k0XjLtDMLaYuzNFQxQY7hoV1+s2Zt2hjcWiqSBhOxUARO8IlKvMl2F7ZDjxeXVDdd0dAR11GH45AmYKoICIb/bJfbBRPQBd+Or99gX3zJZYDMcxPQhWgnSBFy00Uf5R7okHo8zFgiCaBi4PplyBD7j0rcGYEUI4g0TBJoTzG8FgWVlZLjov6hQI5BkB3U4De0CmeyHcVbz7R/qY6+BKCRSPTI428vQ7L64sGqIwpn3gf4LbRElCRQMUkkUFuP2/zEIjyBI1MESKMLw9MrQ9Er0joMgSvXJ7ws6RVQJmCiBUiMdfgj0+0SJVPcjyiqWLY8zlAWUJWIgN9D69eT1NIlXrpcEhgMEkbo8zIQNd+GzfrO99b1qORPeEkIWyzCeY5vUOKFGIyTKfZhoiM2LAJVQ9mEoU9oZCbYEARKrO0SjE8ywQGEcEdHuhbqszHmYtORjHMbrSdEqgShYZV+DNRSVFQxRAkrPy3kljEgXcWW0KFvxgeHvkLFM3JAIo0wQNPFFISAWkSy9Mi59PVDXwMrVnhH8y0yBQBUSiD2DEoMjyM5vXIzMwFkCooEgSNXSAmhM10KqAeSRzhU/3zpo5c6aaG9E9IWR9MIhEAYUKprkeeNXDlURkRpvskZAUqqmqan9V1aRJIaq6o6E2xT+BgEBAICAQKAIEiokoUK7A+z7Azmrl15DY11F4EJcNMM3CqxuqWQhFiSZsVBRF5ghBQpxAkzsnn4caBl6ersjUVjEcnqKwfE5xBQRrseN3tTS8kiwPvHPAyA/4M9uf3cK8KFnT2FukCxxXON0Y/dXq2++9qyqHC4qQq7dMSkkUdBKFrxUF80LxROGDsrJTfv8pvx+8HjDN9P6qKhCKTJoUyuFYRNUCAYGAQEAg4B4CxUQUWJZIeUVdiP7gxg3VWDC1RQANAmMJYJSw4J7ZO7ZuaWqo93jUuN7h+cjw81TRgOaKsixR1UDCaiGug2AXyLLcvOvF9n0NaG0w8PL0wT9Ng3tt9A7IFb7u66AURZaoVyc0oRMt7I4MvjKdmkrcmbO80riSCIHgzSBLiHm9KEvAAjo+oEQBozh/5vEAUej3+dDx4W1GFCDmUksw2FRV1RIMPlFVRQgpLy/HlkVBICAQEAgIBAoZgaIjCkq5h+2sRn5g7dTA7/SvbKguU6UF98zeU79tpL/nw87X4yGZgSU8H7dOkJlqQeF3cY4uvLKhWpHlo/saRgZ7tz+7RWZXy5IUClVBqCX4CjmBaSE20PvY6mXQulHBAUzo1Q3V02u9OVI3JK1LQq4GAzGv91g4/ItgUFXkneEwH0cBzRRuMDMFoz2jTXBGPi9U4/jlhUoarzgQCAgEBAICgfQQKAKiAIkPRmnEIUKINrPWS3+C80QB5fa6Are1A1c49vva6B0BVZaBJcA2Ty0WEyxh+Pl45qdQqCoUqhrjEMlVdfyuVlGUZzavB3PFHVu3RJkXAxgurHx4MQZvNqUIeLKpoR78JEGSkSRXeClyZuf05XUhj0dNbyodXUUImTQpVFHhp0RHkhbKcmMkYkUUIOCSfRRnK3vG5poaYcnoaKrEzQIBgYBAIL8IFC5RiCdG0rQZU72bVtW8uqH67M7pg69Mp7oAZAk6ZgCH4KSQvLUPb48MvjAtekegTJXQzPDmQO+T69ZQvUOCKICzgyxJG9eteXLdmrg3REIlgZIJZogg7di6ZaS/B3b9o/saliyKyjINpZTSOgGJwuXTh8BMAWvmucKvVt+eD1lCYsFRFqZpiiQ9EQyeqw7b2zPqJAq848PHPp+NhyQNpaDmg/okhiX+FwgIBAQCAgFHCBQiUcAda0Vd6NUN1TR2gml0BCNLMJADfgOm1ovSGEsYGey92d/j8/mo0UOCKICFwdpHl8VYJqcxY8NkrsAcIBlRSDhA3uzvuf5x98m2xpNtjcgDUha+er89ThSS62dOGTMcTWyGN+sogpEl6FQPGMUZ7Bm/ZGGXPvF6L3m9/YwofFBWdra83Gim0BYIQCgFIVfIcIrE5QIBgYBAYHwQKDiioGmaLEkzp3rjqSBReMAXjBSBs1XkyUG8nFAo1M2fczMhA6BEYaAnUFmJRGHo+cjyupAiy33H98cYjYjeM1uBpNL8Rv48jbmkqAqVKCSIwshgb4x9+DMpy7GBHuZAwek+Elzn1X+K5G0rJZq2SJY7wlSKgB9dHAUwabSxZ/yCs2fs4wI5d1VU8Dkkm6qqwJ7R5/OOz5IXrQoEBAICAYFAJggUFlHQNG16rXcl+DUkuzYMvRwZsjJXTGyuphRh+HmqdAAGcLKtUUcUQqEqGkGB8QCInbBi6WLY9UcGe9v3viqz+InU2JA5RMDfVzZUq0qKSAkpWQJtZaCHJYVgHpLARVgrQ9sjdXcG/d6cRzsG4c1vbr0FgjcjS4ACcAW0VOCDMxodHyDjA0gUwPGBN1N4MxCAaAp7Q6EnqnLp55nJ6hfXCgQEAgIBgUBKBAqIKGiaNqOWmiPEww0xZjD0/0QGXqaJGJbXhZZDfkhenGBFEXBTZ7vvyxuqZaZ00NkY3uzvCVZWUtHF85EOZudY7pF53cG3F7oW3DNblRW4hhIRVjNVPTA7hnTYgM01jCgk/DiQKDwf6fz91DyIEyC19BPBoMYJEniuYBQqoEThhixbmSlAxgedmQLvJPlSpDrluhQXCAQEAgIBgUCBIFAoREHTNFWR6X7MzBGGdtHNcnldaHqtlwrnFcXjURWZXYBEwZQlJFOE4e3x1AzReXOMNoY3+3sC5fIrG6q/+gNVOkhmez/1fmQBnuNChYT/pKLIOtWDDSGw+gqIQnzgCaKAGpCUSyRu7+kkAzUhYLfI8wMUJ6Clgk6oAB6SIFT4lsVcgrBLfDSFPp/vXHk5pJHktQ8tweA4JptOCam4QCAgEBAICAR0CBQEUaB5HFRlxlTv0G4qP3hlQ/XMaeXA+EgAACAASURBVGX0966q0vCI8ZAGSjzKspU5go4iJPZdFCcYd+vYIPV6UBgTYUaFzDphoJe/EoQK8QROTKIw+KdpNCNUIo4Cf3Gm5dhAT5LEgvUZiEJKfwdCSBn75yh4ESFgmqApyo2Kik9vu+1cpPpcpLqjmv49F6m+VhXUFMUYc4nP+IBhl8D34ZLXe9Hr5c0U3vb7Oyor2ysrIURjR3V1HuQluoUuDgUCAgGBgEAgOwQKgihAHoe6O4PL60KqSoUHMBhq2MiCGckyy8UAsgSjICHBCcDUgP879IcIMACddQLu6GCFkIh/8IBpGqemhnpZpuGcO35fO/R85NjvaqFOo4gCq02zwMdcwm4P/SGSDksYHSXJU07lC8lnUh8RQp6oqtpdU7Mo4bI4FrWCEBa3gto53vD7eWNGCOTMR1NA34fPPJ5LXq9VvmmwVGiqqlqYm4wVqQcsrhAICAQEAgKBDBEoFKIAXEFVVdztNE0LVFZKTOxPIyyZChIspAi46YJ94sZ1a6x27q/7OqLz5siyVDf/7qvnO60ug7wM0TsCy+tC0TsCsiStfXSZ1cXpn48N9u7e+VxcXJGgO/YGCrCRL1kU3bF1y8m2xk/PHL56vnPgnQM7tm558L46RC/DZUApAdACiKOwOxJpjEQ6wuGOcPjTyZNRqMDbM/JCha8VZcgsOxQ4SZ7y+0GogCaNwp4x0wkS1wsEBAICgfFCoICIAnCF73//e6Ojo5qmTZlyG7AEarhgiKE0BHKFxOaKzIAvoLKft0807uKwy/Yd32/8Cs7EBnu/vdBF+YQklalU+qDISTaPVjemPB8b6D3R+tpY/Ec2HOZSYeLvAB4KSxZF99Rvu/5x98hALw331N9DC8xL8/KZw4//7BEWwjKD5USZh6Yt8/lerqacYMTr5e0VdPaMNkSBTyP5CYumgEkfgCigpUJLMLgtHM6gi+JSgYBAQCAgEBg/BAqLKAAOhJDvfW+aoshJbg4JjcPQ9sirG6ox+AHPDHTljt/XVpbL0Xlz6LbKBTzIrvz33+4b162RZVohxnbMrqqxuwZ6L58+pMjM/CJBen61+najYIB5KEib1q2hYg/gB8a/AzSWwzO/3mDQSliuL0LIQllujkRiskwMvg9wxp4roO/D14ryJRMqfOHx8EThveTIS5D3oVlkfLCcE/GFQEAgIBAoLAQKkSjETRbuCMRzOiSUDkPb406McQKR2Fl1/AAPIf+Ta5s6oxpXz3cOnTs6ttNnzT8S8gAwlnyFuWhCz1n+a1m/TIhGnSwGekcudMc/F3tGLjKJAs8YBnpHBnp3bP2NkWroK2THRNPOVYdvyDIvReDLulAKvKUCqh4g6cPXivKVxwPRFCBEI8ZyBt8HPkqjcHwwnQ5xUiAgEBAIFCAChUgUQMZOfRw468UBFjQJoinEoxqkIgqbVtVAMmgX9vWsCYHxRraXj0kFLvY8vXl9PNk0G9GmVTU6Y0aiaZTuXOwZ+ahrjCgAYzCjC99e6FqxdHHK1UYtGYNBG5ZgdI/kiQKYNGLkJTBTAK5w2SBU0Gkfuliy6ZQ9FBcIBAQCAgGBwLgjUHBEgcrYFXnmVG+cJTBxAmR9BN8EDKSIkgOrAhAFG+ODfBOIhBRhjCX094xc6D7R+lqZytw6GFGA4M1x7wOWMZMGizzfRVnC+W76Fz8oXbjQzUsXbvb3NO96MbVQgflGWkVbApaAMRUwlIIu6QMSBXCS5IUKGHkJAyqgn+RblZUVFX4c47g/BqIDAgGBgEBAIGCFQEESBVmKuzkwlvDqhuroHQHqkShJNLpzKkECXgAy/KP7GvJNCIxSBDjD6wj6meLgIiUK1/s6lz90f7knHsh56A8RajVZVgZ2naOEUGPMD47Tz/ku7sORBmQMCWXE9b7OJYuiVrMO54mmXQsGeEWDVVlnpgBcgQ+7BCwBwi7x2gc+QRQvVGivrPxFMKjI8qRJIftOim8FAgIBgYBAYHwRKDiiQAM5T/XS+IxM74CyBFmS0jFgRJYwzBJB8Umlx5Mu6GQJoC/A3f2jrhOtr4GTZMfvar/6QyTgV+LyAEKo0gFYguFvrK/rel9nrC8hY0hWRuyp32aztgghy3w+nY+DkSighaOOK2As5+uyjEIFIApDqoohGj/2+Yx5HyD40rZwmBAiUkPZzJH4SiAgEBAIFAIChUUUCCFxQsBYwsAL02jQAgi6xJIz8TwgZRmiLUXnzdGleBgHxmCUJXAsYeSD49f7OsH9stxDf2SHQlVgpkAIoWGdznbQz/ud+Ll29mhTQ/1jq5cpijKmmOAtGC72fHrmsM0KI5qmSxdpZAl4RscSeO0DBnLWxWeEyEv9jCjw4ZzBpLG9slI4PtjMjvhKICAQEAgUDgIFRxQ8KsvA9FJk6KV4/gVFUWRJStPTQccewEzhRFvjOJADVEAYxQnAEsDU4HwXCAw+7Nz/4KIoqO2BJWiatnb1spFTx+IfoAtnO26e7Xhs9TLQxciy/PjPlo1pJZArMB2ElZkCjZmtKDf8fqQC9gWj7wNKFEABAY4PKFH4XFU/8Xo/4UI08pGXuioq2isrRSDnwnkLiJ4IBAQCAgEbBAqLKLCOkrM7pw+/FIGgiqpCYzX6fL5M9Q7AGDp+V1uuSksWRfns0kmkAXwQ8O8gdS/EEEZJV+LGn1FBxxJ4QQIYHIBC4f3OkbMdJ9oagSvE41QqCrVOOHVs5N32+OfUsdi77U+uWyNJkofluf7m7FHKEt7vjKsnwOaRtRL7qHvto49AVfwKAC6yzOcjimLPD/hvdUIFnihALOdrigKOD0Oq+oXHA44Pl7xecJLUEYWOysrjwWBZWRnfMVEWCAgEBAICgQJEoOCIAiHa4CvTB/40re7OoCRJs2bNgmzINi6RQ39g2Z8tjBxpoEOVZnqMc4VEHMM4IUCKkLKQET+Ai3UaBx1LQIrAWAIQAsoV7quD3Z1o2tOb1/e3/i32TnsswRWGew49sHABZM1OkjSYcQUIqKAm8jhAteXl5eAYaePvwFME3kkSfR8wRON3isIThSuq+pXH85XHg2YKoH3gHR8gROPxYLCiwl+Aj4TokkBAICAQEAjwCBQWUSCEBAOVb/x5od9Lrfmqq2mgX0KIqTih8/e1m1bV/Gr17Yosb1pV88qGaivGsGlVTfSe2e37GuIBj005Ab+pgxjAeBnIG9JkDDpZAnNwoFEQqJdjXN1AJQGgUAD9wrvtI91vfXP26J76bUsWRRVZVphL6PKH7n9y3ZoTra/F3nlr147/rsjKiqX3o4yB0gU0YgDykZArnGxrZO6mhoDQhDRHIjo2kM4hxlFAMwVjaiiQKPBEATJJQojGU35/V0VFV0XF8WAwGAjwa1GUBQICAYGAQKAAESg4olDukWdM9fHKdUKILnbC0PORTatqVtw7CS3+FFku98jAGDp+V6uzVHhlQ7UsSdF5c2j8Y9j+eVoAPgi6v+C+iJeZkgZ7xqAjCmiXYMoSEgKDke636KfjyJUjB47ua2CxmNCakzqIyizTxJ76bfQyvMuCKxzd12BFFD6dPDkdZsBfAyyB5wooTgAbBbRn5D0kMZOkLj7jW5WV4fCUAnwkRJcEAgIBgYBAgEegsIgCyA8UWeZDExKi0bAKCc3CV89TI0f+AhwPKCnKPVTAgNdD4ZUN1Yoi0zSSuPfrmIHNId4CGZiANKRkCTxRQKUD2iXwsgTY74EiMJYw0nGEftoPj7QfvnLkwMm2xhUP3Y98QZGkpzevj+H1cDvIJMA5IiFXANWD0QUx/QgKPFFAvQOKE2Ky/J2i3JBlyPiAyaY/Zx6SGMiZ95AEiUJHZeUxQRRw4YqCQEAgIBAoYAQKjijosGJ7fzwS0fDzEWAJfq9Bls7dBnRBxxUgk2S5R6behjpOgLs4X9BdA4fAGHjpggVdiA1wWRiMSoeULIFRBEoUjhyin7a2K0cODLTtfXrzekWWwd9hxUP397ftjUsgkCtwOgirmEuapi2U5RGvF+wTeSpgU+aNGdFAAVwe0EbhiqqC48OXCaLQ7/NhzKX3ysr4mEvHg0ERbYlbtqIoEBAICAQKFIFiIAqSBJaMgyzdg6ksQYcuIcSjqDr7R3CVpH4EuHPzzACsB3Rn4FBHGlLRhbf2NSy4Z/bTm9fTrJUsSHOSaQKEQzjbMebOkFA3oBRhjCIAUeD+Dh85sOKh+xWZ6iCWP3R/864X6V2ohuB0EO17XzViBSzqiWBQk6SsiQJKFIzBGYdUFb0eLns8wutBtzLFoUBAICAQKDoEioAoqIr86obqgVem/2r17cadzwpxQsivVt9+6YVpqIOglgqyTIkCbP+YMQHjGfABkvlvkT3wjEFHFxKiBcgGSX/0yzKNHo2kRGeawFkvglHCGEsAWnDo4IjVp+PI9me3KLJcplKu0L73VaNcIfZeh2VeKELOVYd5loDhF40SBbjMVOmASaH4yIxXmG8k2ChcSsRRAGNGnY2C8HqwWrrivEBAICAQKCgEioIoqAvumb2EBSPKCDvgCkgUOn5XK8syzRFlygxAr6/Pp8A8FOB6I13o77nZ37N753O7dz6HcRq+7uuA5FXxxJV4FyMKH3bu/7Dz9Wtn2uPiBKMs4cghS36QzBtOtjUuf+h+sG2k7CdZrrB753NGUgUmokTTbvj9yACAJdhzBd6MUSdOgGTTYMYIcRR0lox9Pp+RKLRXVh4Lh3m/zYxmVlwsEBAICAQEAnlDoNCJApg3qoqqKqpH9WSKC+8xAembPz1zOB7HEJkBBCziAiTHgxclTALH8jDxcQ+ZdOHpzevBYoBmZGBChZv9PSuWLqaejYpydF/Dd+ePUwEGk1VcO9O+ZFFUluUHFi54evP64Z5DcUkA2C0aBQltbSOmn0MH4TxwBUWWH3/0kThR6H4rdvLYjq2/gWAMPFyQWEHTtCeCwVFJQtUDihZMuQLyCeQKOgMFyPUA0ZYgiAIShQGv12igAAkk3wwE/shyPfA9FGWBgEBAICAQKEAEioAoOEGNxiqWFQix8M+P1o6OjsZDGRrJAU8U+DLyCVBMIFe40B37uAdCKUvM95IKFZid483+npNtjc27XoyzBCAKrMWBdw5AjARZovEihw+3JGkcDh2MtR8ePtwyfLilv/VvTQ31IK5oaqiPtbaakgZwgBwdHaXGCt1v9bftXfnwA1aIUQMFSTpXHcZdn6cLRr0Dhlrir+eJAp8RClwevvB4vvB4wN+h3+ezCst4LBz+abJvi1WfxXmBgEBAICAQGF8EJj5RgBAL4Cjxd2UEJQrIAxLZE+IBi4yHeCUf9/B8V9zK4UJ3PM6BJK1YupimnoIPmC+AQQNlCUyiANTkbMfIu+3Xzh5dy5I1LFm4gHougHcDYwnLH7ofRBQSjZeglKn0Lw2fIMtNDfVGrhA7dHDjzx/DsBNYMF1VmqZB5GZ+40eZgZEowFf8xcgS0EBBF0EB/R0uceIECMv4tt8PGaE6WI5po2bEtM/ipEBAICAQEAiMLwITnCjw4BJCliyKUqLAEwJMuWRawCuBMfDKCCZauP5xd/OuFzeuW0OtBECiACwB4jWBgcL57rgugwvVPNx7eO3qZbIk0bRPHUeoD+ShgyNHDj2zeX0wEJg0KeT1esDWYcaMGTNnzpTZ728jURhpazvR+poiyxiemR8yX0Z/B9A78Ns/cgUoAGPAk/yVSBR0/g4YaulzVb3MEj0MeL0XvV7IG6lzjGyORBZxUaX5ToqyQEAgIBAQCBQaAhONKJj+pE6cJDu2bokHPEanAwxuaFpA9gCMAekCr4YAU0eWrXEsQkMSUWABm+Fe9Irsfmu455DCRAVXjhyIGzCCRQIzQehv/Ruk117x0P3xb1lABSNXiB06uPbRRxJjtFtgRNNA7xCTZX77hzIyAyyAYgKvRJYA4gQIsnRNUZAlgDgBvCIhIGOfz4eRm9/2+09WVf0xHBYswW6SxHcCAYGAQKDAEJhQRIEQcsstk3QIUzMF9vuVEEL9FY0UAUMc6gpIHeCWBFe4dvboh52vxy0i0WSB95zEclyikCAKyBJYToeRjiOguaDxmMGjIdl0cffO56gCQlXpt8lfJR0eOtjUUJ9Skk8IWSjLN2QZ9nvc/rGA/ABNE3ivSLgM7gVPB1Q6gHXCEAuy9BkzUEBxAiaNPBUKNQlBgm5pikOBgEBAIFAMCEwEomD8Mc2fYYmmApqmKTILy4jbv44W2BzCLYwuxM52PLZ6mQJulrxcAckBX7AiCtDWkUMnWl9TFZXaIZpRgdjBNojHQEUONkShrW2gbW/KxUY0rTkSQaJgpAtIFPgC0gidVyRGYzQVJ1z0ei8kvCI7qqvXh0KUril28TRT9l9cIBAQCAgEBALjgkBxEwXC/tXNm3N0X8PQuaPfnT9+9XwnZGpGrqBp2pQpt8WtAU4do4mUeE4AWRW43ArUYgA/eGWCK3zY+Xp88+5NuFmibSNPEfg4SxBqiTNQiHeg/XBTQ70sSTQDhSlRaGt7ct2aeDwGG6Jw6OBI+2H71QMGCt+Ul4FtAdIF5AE8OeDLeAHKEkCcYCQKXzDThE+SgyztrK6275j4ViAgEBAICAQKHIEiJgqapkXnzdlTv41GSobf7rA9f9R17ezRTT9/bHR0VNO0adOm+ny+eJxEniUgG8DECroCXgB0gXGF7c9ukZmPQ9x7AgI08QqIC91xSwXoEiaVNhCFWPdbyx+6X5EkGoPBggc0NdSXqczg0eICeiOzgoR1hvRIt+wIIU8Eg7DHA1cwShR0FglIEaDAEwVkCZgFymid8EFZ2XtlZS9FBFHQTYU4FAgIBAQCRYZAsRIFTdMe/9myoXNH49kg4dd8Ym+mAQw+OL5753OQQmlMBoASgkRuRsjQGM+9xKVUiJ9vPxyXLrAbY++89cDCBbIsU6sCzNOoU0CkSRQ6jrzb+lpKzcLw4Ra4xopJ8ESBEFJR4TddgGDGCOaH1zlLBVO6oKMIOqUD5ooEpcMVVf2ShW2+nLBOQKXDKb//XKTairuY9lOcFAgIBAQCAoFCQ6AoiYKmaQ/eV3f1fOdY3AIkCvgLnsUtaGqoBydDKt5PmBCOkQBMz6gLnIyMAWUMLEByrOtNRVEUSBiRsG2MWzWiAgLISoKyxMMyYhCFhO7jYtveBxYukCSJOjW0HzZVPYy0tY0RBTPdRJw9MIkCaGEqKyuMKwzMGK8FA0AUIDE0L1cwdYIAfoAsATwdeDNGtGHEUIx87ATI7HDS719WVmbskjgjEBAICAQEAsWCQPERBU3T6ubPobIEjG6ExgGYxCGxMcfOHJPZPyoDgGwIKEswhkxmrgc0WiLs3GwDpsIGoAsdR2Jdb0Juhbj3hFGogDoIJAq6aEuMKABLkCVJVRQagAHUB2bKhTSJQuzwQcXaVPDvHOI3t94ypKrgyvidoiBXAImCFVEwsgRQOoC/A2aUBusESAEFoRjRJbKromJbOAwxHorlkRD9FAgIBAQCAgEegSIjCoSQ6LzZdHMd5MIgWogTRs52DPccAtH9QNteakLIswQ+xxJs0ocO7trx3+MZJmHzNnAF6tAIVgXvssROPFfgWQIaM3Lxm0fOdsTOdjQ11FP9hSQpikL9HXi+YuAK/a1/i6sebCUKsbcO2fgUgN7hSoIo8AoItGrkuYKujLIENE1ATwfIKA0ukZBR+oLPhy6REIdxd00NIaRMyBX4x06UBQICAYFA8SBQfESBKhEgp7NOonChm6aF5FwMYmc7qNcAtT2835Il4N586OAL/xc1VFz50P1jIn0gE7CXM3sF2LlpmoYjB+IRHiG6M1gq8HqHMaFCPI7C1TPt0B8aHQFZQiJ+s6n2AWwnafRG7KeuwHp45cgBqyUHeoevPJ4rqspzBRQq8FwBTRZQ0gAF0FNghCWoClkCEAXI7AA2jHxG6WZGFESiSKsJEucFAgIBgUCBI1B8RGHgnQNJRAH1DkaicOYY0xRINCAjihMsfsGfaH0NXCip7AE3Y5Q6JBQQsa43lzDbgrWrl9Fs0SBRQK4AmR14ugDc5XzXu62vgSBBYumgqPICvCrQTgLawqbb2mJtbRCzgepNuPNJZXaXTRwFomkvVYe/8HiGGFH4mgVSvKYo3yqKzlUSyYFR48CbJmCiSJ0N48c+n1Gc0FFZCUShwB8D0T2BgEBAICAQsEKgaIgCGOutWLo4iSVApOSLPdf7OvvfbjnR+tqHna9fO9MeY76I1860g9yeqirQLBHtFrmtN3boIGzJVBfAnadl2L85ocKJtsYli6Jsv1/wYed+c/eHhDgh9lHX5dOH/k+msIDOPL56GQ2gBP4XpqqQRAeoHoTaMciWAZcSfdtTv83UuQDECZdDIUjqyHOFb5mlAnhAGIUKSBqATFyXZdQ7oA0j7xKJLAHSOpzy+7sqKroqKtorK5siERu1iNW6FOcFAgIBgYBAoEAQKA6igGGY6W9rg95h987nIOkiODhIkvTkujVNDfX7X90JeRfpRgtbsoU4AZQOj1tJ+BP7MbKN4cMtwBUeWLhg+7Nb+lv/dvn0oet9nbG+47HzXbGPur7u6+h/u6WpoR50DVSwIUkQGGoshrQtVzgRd55k4pAEdUgiMYlexTqOrH30EfPNmJCXq8OXvN7PWPbnL1UVuAJYNQJXQLkC0AVeJYEs4bosY8Bm0DuAOAEDNoNLJNowgnVCe2Xlm4FAc01Ngax10Q2BgEBAICAQyAKBIiMKcTNGtGS82AMJEeDHejg8JRyeoqqqwvIpyYw4yLKcpHeA/ZXbemMH24BPJCkduAvGhAoJ94eR7reu9B7eyMImQuom4CgPLFzw2Opl4PcIZ6Dm6Lw5z2xeT5Um4FQJTpLormkgMRfb9i5/6H5Zksy5CwwhYWhpr3cYrKy85PVe9niAKxiFCjxRAIcI4Apow8iLE3TWCRCHsT8RrZk3TeiorGyvrDwYCPx28q1ZrEtxi0BAICAQEAgUCALFQRQQLBo7gZMoXD59aME9syVJWvnw/Z+eOQyWjN+cPdq860X4xa/ISjyPM+zxZnqHXTv+O/CME62vJf1kR66Q+O0ed5UEN8vut0ZOHbvSe3hP/bbovDnghGn8u/bRZRBeOinTNGaHMhMqnGxrXP7Q/WUqDbEQ5y7IDPgCSEfa2vbUb0N8+AIhZJnP1+/zDXi9nyS4whAnVADjxG8VBRUQPFFAcQLaMKKzAwROgCyR/QnTBFQ68OKE48GgyBXJT4ooCwQEAgKBokOgiInCzf4ecFaMzpsTZwmcy8NwzyGPR1VlhQZINpoCJEgAiBPiv/5lOTVXgFiNsMFzHpLfnD068M6BgXcO9B3f33d8/8A7Bz49c5jSGjCxTJg0UrrAx3LGkNLMsDHGsj/QuM6yooJbBBpJ8BQhIUsYaT8c635r5cMPmC87Qv4Sqe5jGzlwBV6owHtAXJdl4Ao6onBdlr+xVTqAS2SfwSWygykdDgYCu4XewXxuxFmBgEBAIFA0CBQNUQBjvZNtjTHwihzojfX3LFkUlWWZOkz29+h9I88c83jUeMwDG6Jw+KAkST6fL1hZSb0WZXn3zudM5AooVLAgCknxGT/qoukeIJYzekCA/yQQBTOuMNRz6LHVy6iqgoVrjAdiArGB8W9CCbJj62+t1hqET/igrOwCkyuAUOELjwctFcAD4ltFATYAJgvIFYA9gGkCXAkRlnRxGMHTAcQJIEsAG8aDgUBLMPhEVZVV98R5gYBAQCAgECgKBIqDKBBCPKpndHSUeiVwqoeBdw4073qRihOMvpGnjtF9V2bGgNZEAUIfhqfctmPrlu99bxroDnbvfC7GBzjCX/PgJImqB06ikEQU0GMTC0AXeK7AGSvEut/inSdXLmUaB5YTMikJBTpuJDJQ9Ftnlwa9wwdlZR+UlfX5fB9zCghwlRxSVSQKoH0AooB/jeIEUFt8xmWJhDiMughLYMN4MBA4Fg77fN6ieAxEJwUCAgGBgEDACoHiIArx3hNC9QgcUaCCBPzhrou29G48uhG1UeCDKMCun1A9AFEIBgIQ7wjySEFABRrLGS7jxQnpSBQwLxQSBQzUCMqRhAIidrbj4tstj61eRo0kmDyDOk/2JjJRIb8xUISRjiM3bZQOo6MQtvmU3/8e4woXGFEAq0YQKujiL6H8AIkCSBrAPwJdInlxArpE6mwY3wwEQJwg9A5WT504LxAQCAgEigiBYiIKhJC6+Xff7O+hXCFVWMaRd9vb974K2gQTopAQGOiIwkhbW3/b3rWgApDlpob6GNo/JmIuUYuH7rdoiil7iUIixkNS1mlOqND/dgsGapRl6cFFUapuwIQUQG4w1TUW2Pmb77ZvZHm0LZcaIeeqw6f8/lN+PwgVgCt8wlwlddqHa0z7AFGY0MIR/SEhwtIQyxLJixNsXCIPBgJvBgKPlJdbdk98IRAQCAgEBAJFgkAxEQWAlMY0tCcKid/rSYke8Nc5bvxMWgBEoaysjI+gfOXIAWomKVP/yo3r1sQgR5RR72BPFFCcgIwhoYC4dqYdIjeAIGHJoiiNHQmGjcA/wFjS4u/Nd97a+PPHzAMnJJYd0bSTlZVvM6JwtrwcLBUGvF6MqQB6BAzUqGMJIEhAcQKwBF6coHN2AOsEtGFsCQY7qqsTfRH/CwQEAgIBgUARI1BkRIEQsvLhB9CekcoVYD9G54IPjqNnQezkURbGIGGmAFwBiQITKsSOHFq7eplpuAJUQyx/6H4qWkjYD1JxAkgUTh0zCeGMeof+HqoZwQ/r51fvt+/e+dyCe2ZDjAdFlp/ZvJ7qGtBkAUMsAGNAt4iEDONi294H76uzX3E0CZPPd7KqCiQKQBT6fL6LjChATAWjUAG4Ak8RQJbwtaLw4gRdlkhoAl0iQenQVFUlzBjt50h8KxAQCAgEigWBIiMKDFZCf3/rVA9gBJBspjBytuPpzetprOWFC2hAAqNQIaGA4MUJvMvDdsmENQAAIABJREFU8JEDK6izoqzIypPr1lCrhZSWjDxRuNhD+9nfE7vY/WHn69uf3QJRHyRJUlXl8UeX0RBMvB8ETxcMjCF26tj2Z7ekZAmQ09njUQOVlb8IBv/vSPX71eH3EiaNlxJChc8TARXQo8GUIvC5pDFL5IVE7AQr64Rj4bAIn1AsrwDRT4GAQEAgYI9A8REFaqkwb077vgY9V+AdHxLah9jJo4osKQpzoeRNGpPlCjw5SDJgZBELULQAAZuHew7FrRNQovDBcRrr6XwXtazkicJAb2yg90Tra3yEaVmWVz68mFKEi8ylE0QgSBfAcxIYA8RlOnVs5NQxajlhFafZMMOapi3z+X4RDC5k6pOfyvJvbr1lsLLyQkKooIvojIaNvF0CUASQJfBpHQa8XqNLJMZhbAkGQZxgmnvC0FNxYgwByGZi9XfsOlHKFwJWcwHn89UL0Y4JAmJqTEDJ5aniIwrwi7lu/t0fdr4Ov9eTtA/JbgUj7Fc4mDSOeROAEoHnCugAqSskAhj0t+1dsZSKFmRJemDhgqaG+uGeQzFIHQk7fTJLiPX3fN3X0b731SfXreFjOW9ct6bv+H7a4bH4Ct3x1NioNHm/Mx6UidGFa2fabYIlGNcGIcTvkT/xeC4pyideb7/P90QwKEvSL4LBgcpK1D7wARWAKKC9AhxeYf6T6BL5mccD0ghTl0i0TmiqqjoSCPxUlu1NKIzdLtkz+MpbtWrVXRb/1q1bB8te0K88rBMxI3kAObsmxNRkh5vzu4qSKCS4wpyTbY030UxBp3344Dgo/psa6v9uCqDK8jO/3kAVB/BBrmBFFxIUIZ4Iimkc9tRvW7IoqsDOz1JPnWh97fLpQ9fOtF/v67ze1/nV++2XTx860frak+vWKAozhpQkWZYg1wON9wAmCwm7Crhr5DzjCkhxOBnDBx2vp6NrGFsHhFDPSE1bKMvHyssvs5gHn6vqGx6PqsjLfL7BykqM6Pylqn6VSD8NtOBrRQFPSOAKwBL4gM3gEtnn82H+J8wSidYJIl3k2HTYluCtd9ddd3k8HnwDsgkcTf5Lv9Q0LRgIzJ49Gxa/bcXiyywR4GcEqqDMzPABukYIETOSJdCZ3yamJnPM3LyjWIkCYEAI2fjzx062Nd642B3/mY5mCh8cj73f2bzrRT7CMU0+iW6HGJwAOYGugNaLaJfALAqf2bweIkImmAAlDh6P6vP5EhSCBkWA2E3ReXN2bN0ydO5oXPiRsG2MXexp3/vqAwsXLFkU/e788biAARkDIw1v7WuIzpuTwWxr2h+nTOkIh/8Sqf4pYym/CAb/P5bl4bLH87HXWyNJv7n1loFE3ocvPB4jUUBxArAEndLBKv8TxE5oqqpqqqpaHwpl0OeSvBTeerNmzYJdX9M0j3eyxzv51vB9P5r9jO7jD/zY453s9d0GdxFCBF1wfdXoZoRRAUrPZkz1vvDUfN2n5jZ1dJQx8sSUiBlxfUawQpOpYcT5R2Vl//KTn+g+t8syELvEzIiHBYF0VChuogBDJ4RE581p3vVi3/H935w9+t3545+eOXyyrXHTf1vLY0MIeXBRtL9t7xhXQPNGJA18AcUP6KbIxU442da4p37b2keXUX1E8j+v17Nx3Zo99dsG3jlw/ePueIQoiBPVT80br3zYAUGWJEmqm383vQY1ER910VjUH3W9e6BxwT2zFVmmQyCEH4h5WdN2hsN7Q6F/D4WaqqqaI5GFjCvUSBIEP7js8QwqyiJZ7giHMUcURmkEiwRkCVeYsOFLVf1cVeH2S0yLYWqdgBGWmqqqhFek+exwZzVNi967CCmCP/DjH8z8rz+a/cz3f/QHm8+PZj/zg5n/tSJ4B74BV69eLTQRHK7ZF3UzEpms/OOymQdeWnjpjblfts0abokkfZoil96Ye+mNuS88Nf8fl82suU0VM5I99Knu1E1NjST985w5//KTn1yrrb16yyQ+8+0NlrDmWm3ttdraf/nJTx6eOvV2WRZTkwrgdL+fCEQh3bGyeIVLFkWpNSLs/UgFkDHwZ3hBAvpDggEjWid81PXd+eNXz3cOnTs6dO7o1fOd350/TkNCQVQoIAfJf5sa6sE9UpEpS4hbNfJWCxe6v+7rgGsW3DO7edeLz/x6g80Y6W7BZAm7b7nlf0ya9O+h0F7GFY6FwyhXAB3EZY/notf7i2AQ/Bc+YxIFXqiAGoev2Fc6cYKpdQIGbG6qqtobCm0Lh8XuZTNZ+OLTNA0ogg05MP2KpwuCK9hAneZXmqYtqFsIyp3IZOV/Xzbz0htzh9tqKTloTfVpifT82z/wdEHMSJqwp3MZ/7AARfj8xz/+RpZHJUlHEXSHmiTFZPmD+fN5uiCmJh3Mra4pOaKgyHISV0BpAVIEPIMFFCSgm8P7ndStEZwdQAYAZgf9PTTGAxMbJAkSElyhqaEeIiiASoIqHRLKiLhJJmMMT29er8jUFmLTujUjF7oH3jlguvvC2+2nstwYibxy662v3Hrr7ltuAaLQEgweDASaI5GfMgNMtFf4zON5X1EGfT6IpvAVlyMKdA0gWvjK4/nC4/lcVYFhgDgBskTy+Z90zg5/b1SYMVo9aaOjo5qmKYoCs3Zr+D5THpDmSRAtgOGC6dqw6Yb4ChHQNA3iqimKPHOa98xfo5QitNWmpgg8h2iJdP/rP6BooSoYFDOCCGdd0DRNVVV4av6nsjKgCN/Iso4TpDz8YP58FC2Iqcl6OkqLKIC8V5HlB++ri3s5IhswFjDkEXNQHNGxBPCH/MjgEgksYaDXSBRig727dz4n09ajfcf3xwUPQCyQLvT3XD59CMItLFkUpTTiYk/so+61jz4CcwzCNBiILEk/leXmSOTPkyf/JZkoNFVVQRzlP1eHIf7j52VlKFdAiQL6PgypKmofhpje4TOPB5UOA16vjTgBXCL3hkLHwmHh7GD1KAJLoOYszBYhTUJgcxnYLkiSJF5/Vpjbn0eWIEvSzGneuCCBZwCZlE83RoEraJomZsQe+ZTfIksgmoYs4XrmLAH0EcgVxNSkRN7qgpIjCgDEmL0CsgHTAk8RQN2gkyXoAifAfm/GEoA3XP+4+9Mzh8cMFxIps3lTRwgSpcgyDVadIBAn2xqBIoTDU4BoE037zz5fcyTyxylTkCig6gEkCu2VlSerqv6zzydL0kvV4QGW6OEykyJA0geeKIBEAVgCRmv+xOsFlpDSOmFvKLRThG22eM5AiEqToHonpzRHsCEHuq9+NPsZMHIUYlUL4C1Pa5r2v0Z/Chz6hafmU1uETAUJBhpx6Y25m1bVeL3Uh0XMiCX0qb5AjQPRtH/5yU+MtggppQjGC67V1v7znDkKs1oQU5NqBky+L1GiAL/IH1wUPdHaGE/vxBMF5Ae8RQKEN8DYSqayBGulAwoYYoO9sYQmgp7kucJAL1gnSBL1qIyLHBhXuNnfU1ZWBhNIGYOm/ebWW/5y661/nDJl5223IVHQqR7aKyu7KiqaIhFJkhbKMkRUhGhLQBQw8hJYKnzJMj8BS8A4jBBhiXeJxIDN6OwAVhEiC5TJE8YsY8B6UdM0hxoHHVH4/o/+gOaNq1evNm1dnDQiQAhZULcQfJRmTvMOtX0/M12DgSLEb2+rHWyeizoIMSNG5FOeoZbpzNRXY7KEEa/XuOtnd+ZqbS3qIMTUpJwI3QWlSxSAKyy4Z/b2Z7dcO9M+lm0BoyJCAfgBL0g4zxwTMpQlIFGwL5xofQ1+5cQTaidEFLH+nui8OSBUUGR5NxMk/HHKFCQKYKBglCh0VVScZaYDiiTtjkT6EvmmwfHhC2aLAFIECMII1gnAEi57PANe78VEKEYM2Py2348RllDv0FxTo1tb4hAQAI11LlgC8AbgCrCeBebpIADPkSxTuwSqcbDa+LM431aLOggxI+nMhe4afFhA45AdJ7C6C3UQYmp0sKc8LHWiwPI4UPPG9r2vfnP2aOy9jhgEUUZ+gBSBN13kWcLFROYna42DPTnAb2ODvRDJUZbleOgFkD2woFI7tm4BrlBeVvbnyZO3JVgCL1EAotBUVYWqh66Kirf9/h1haqmwUJYHGVGAmEsgTvicSRHAqvFLVTWKE2ysEw4GAuDs8O+h0G8n35pytZXgBYSQ226jIRD8gR8b5QFunQGuAN78JQhyRkPGGYlMVhzaJVgxjO5//YfIZOo2KWYku6mpkaTPf/xjq/0+6/PXmStEDVNAiKnJaGpKmiggUoQQlZmjh8NTnly3ZvuzW5p3vbinftvRfQ0n2xr7326BEIqx88djGPAA3Bx4luCYKHzQ+Tr4RGxctwbZAxZu9vc073qRMm5C/hKpBnGCqUQBiMKbgUAHUz287fe/nzBpbI5EgCugjcLnjBzoiMInXu8nLH3URa83pbPD3lCoJRhcVlYmjL1xRWEh8QuJuGiaYKQXP5y1DhoSU4DIWxUSM6JtWlVDlQ6OTROMdGGoNfKPj8wSM2I1BVbncWo2z5mTneliSg5xTZb/t2nTxNRYTYHVeUEUkpAhhICMAYSTIKFSZLmM/Vv+0P0bf/7Y05vX79753Mm2xq/7OmJAFMDOgLc8yLz8zUddkDtK/v/be/cgqco7//9c+jI90z23nu7pCaBJrWC+GBnlKxghIFTF1URXUmLM/vHbEt0q2Sp0/9BUWHcXUxHqh4H427giqLh8V4O4KlEXkpnlEpWLY7h4QxFQEmRmiAMMDDAw9/PM73vOe/rDwzl9Od3T3czlQ51qnj59+nTP5zndz6vfn5uqfrJ1vZlm6ThJb9Pe+37yIyHEDFV9SQpQeD4cJtcDwgU2hUIyKOwvKnqsskKxOj58ZYkKyIA4YeVAwgEBYoDTAZRA0Qlf+P3kd9hVXEx+B5IT6mIxVVEGykNdYtFRfUcIEY1G8i0nyA6IzEp5jr7JwYwYhpE/OcHkBithEqICz4jLq4w+LHmSE4ghvpg6FaICT43Lqenv72dQsNtKCFFeXlZeXlYaCsmPkeqgWk2izXioGybNu2dO3dpVHUd2ORf1jPb0NO2lWo33/+2cZM/tbd67c+NaM9FOUdZbYQqy3wEFlwAKyI0kRWF/URFEhZmq2lJWhirOKKUABwTSHyjZAf2fbI0i9wUCoIQdJSXU2WFDWdlr5eWPVVaYDTWsvGfZaKN8LIQoKioyjPzKCQCFb02YbxhGVVXVKLd56j9fCOH3+z0e/ac/rsmHlkDqAokKPCOpZ4QejX9YjIW1tbSo52PQpap3jBvHHxayvJsBg4IbK108Btjr83mhPei62fvJqp70mNmhqjGBDJBs1af9PU17f7HwIVUzKyxNn1rb/qf36SHnoPvobhRtXG7lOwAUUG3JFskIReGDQGBfILC/qOhzvx95kvWx2DGp3QPgwCYnwD1xxOeD3yGNnFBaOieekXHRUjyy8h1ynhLp9DtgD1IlOUor9XU3EA6sa3tenZ1XUDizJfb0ohtZ4k49HfKjmBpd1TZPmZIPPqBz9qrqv11/PeRPTJD8Nnic0AIMCgnNks1OIcR9P/lR/cvP9jbtcS7wyfacOrCDtITpUyd9snW9mTDpcDrQnt649nCnz+eUE9DoAX4H5EYSKBz2+eB9eKyyAiEIsqKA8kqUEglQOGyBAjWKpKxIWU4wXzEW4zpLzivGrNVx221CiJynRCZjBdRUeOCBB5xvhvcAoTAjV431moUTskhqyOQpzfWTdd0sxMkzkvbyow/L1X5/dyBAi3qeBu1jxqCmAk9N2qnBAQwKLg3l9jAhxK03T3tl1fK2QzsvqZfgWPu7j+5esXQRijBCSzApwXGYc8+KpYuQQvlSZaWzgoIzkhGKwmGfDwUVVEVpLimhGAXKfUAdRkQnNPp8LuWE18rLV8eq3VpnNB0nhCguDuQvK9KJC+Hq2UKI8ePHjyYzZ/C3YkaEENO/E8w3JZzZEmvdMuGqsT6eETczRFNzQzCYJziQT9s+ZszVRUU8NW6mBscwKLi3VWZHogV2/cvPNn24GS2jcHv8s3eaPtxct3bVX8+8CSVfVFV9ZP69Zj6kC0robTLrQAMU1lVUyGGM1A7qD8HgjpKShpKSDwKBDyy/w6GiogN+f1NJCVo/HKqOtng8VHMJrEBhjM0+H4ECyQkJoxMgYHCdpYRXhqklVFZqqp7XfAcZF75du1gIce211yZ8P7xTCBEOh/v7xebVMwsACmc2DXgfeEbSXnsDUyNEvv0OwIVOVf315Mn8YUk7L3QAgwKZIjcD2ekFrxslUED8RE8gVTNDElRVnT6ldufGtam1Bxkgehr37NjwGwIFavHwWnm5nO9g8zt84fcftkSCBaGQqihrYtVy3we5l/SxeM3mFNEJKLL0hhXGyHWWkl03A6CgafJantcxg0KyucD+QoNCPEyBQSH1vOCL0WS4QoFCN4NC2im59AAGhUvtMbh7ZmaExwO/Q/3Lz869/ZZbb55mRVl78GHwej3ItJx7+y2LFz50+I+/v9j3wYWcAGIg18Nr5eWUFSk3jZQTI/cFAoeKig4VFR3x+b6Kex/m+HwUlECDFo/nmNfb7POhFKMTFNBRmkoxAhQeLC0dnM1G7LMBCoqisqIwROaYQWGITITzbRRYUWBQcE5B6j0MCqntk82jr6xa3ic1dOht2tv51e62Qzvb//R+j9WHurdpb8IyCbJykGxMwYyqosigkFpOACg0eb1UeQlhCjIlXIxOcFFkCZRQV1rKfodklwiBQl5VBPnkrCgkmwvsZ1BIbZ/L+CiDwmU0vpuXZlBwY6UMjjFDpaZel4VOkIwMbPuRHonSSW7khP2WnHDYkhOavN6mkhK4LZpLSmRKQMhCwugESnbYFgza5AT2O6S4MgAKqsYxCimMVNCHCg0KHKPgenoZFFyb6vIcyKCQY7sjRqHpw822BT5Xd798/3dY6dfHYqiwRDGMCbMiD/j9X/j9R6z4xGNWYWaEKTREowAFBCugwpIZw3ipnJCiyNJr5eVPRaM5Nt8IOh3HKAy1ybwsoGAYBscopL0SGBTSmujyHsCgkEv7mzEKVnXCnRvX5ooMbOehlIf6WOy18nI5htFZjRGUADnhqNW74ZjXuywSURVltZX4QKxw0e+QssjSplBoQ1kZ+x3cXDRCiKCl33xz/AOygyB/Y06PTD0vQohQMCiEmPu9snxXW0J65F+N8WqaxgmrqecF8VuYmjvGjpXzGPM0PldRfkNpKadHpp0XOoBBgUwxMJCTFOyPub0vnnliUU9jBmWXbDSQ7O7ZL99DUuUMVa0rLaVSjHWlpTZKQO0ESnZo9PmgGbR4POjLsCAUovqMFMb4lZUZ8YXff8Dv32elVibMigSgwO8gZ3m4Nc/oOM4s8j19pqIoee0bKWMHCi7dc889o8PAGf+VQohp37tZCHHVWG8BQMEsuOTxCCF4RtJOFabGMIwaRTE0LU98QKc9P3Ys6ISnJu3U4AAGhUsMhUYP1dWDUtSFEPf/7Y9yDgq9TXvu+uH3VVVVFWV5JCJTAjkdUDsBlEBOB3SBgt/hhMeDeEZKfKDohObkRZaouQPJCesqKh60kFz3mAkd/C+hBcw635rm8Ybl5TxPY5RwZm5LOBHyTrNVCko4Z1JmMeO6C5tim1ffjNVIfnUeJ7OAEMJqo6N/OXUqrej5GFxQ1c1Tp/LUJJuIhPsZFC4xy4CcYLVyHqS0kLplQzLNIMV+cjrc6fPVlZbKoQlUYWlXcTFqNpPTAdEJzZaiMFCN0e8PBIo0RTnp94MS4HeAnHDY56MiSx8EAg0lJbasSMgJdaWlN3MLqEuunQR3hBA+n0/TtAJkSH5z/AOKopSXlyV4H7wrbgHMiKooT//r1IzX/kzAgppC8YzEbZ/mf/Tr6hfi19dfn6ce08AOQ9PQFIqnJs2USA8zKJjGMH+HWYWQigNmO+aV0ejySGRBKOTR9f44NEhGczXMbTzjK6uWm72gVHWmqjZEozZKsBVO2G/VYUSFpUafT6YE9Hd4rLJCVZSWsrITVu0EKp9AzR1kv8O2YJCaOyA6YV1FBec7uLkIhBBlZaWF8T4EghM1TZs0aZKbNzZqj6EZGWgzncnanxFYfLp+GtpM84y4vNig5gohvqGq58eMyYeWgHMenzgxpii6pvPUuJwabjNtGkoYxgxVXROrfrE6urKqankkQttTkQigYY7f71LUJR0C1RRSKATuH6p/+Vm0hJihqvWxmI0SUK2ZtIR9gcCBeB3Gr+KU8LXVLpL6O7wci6mKQoWcB3pFWvkOspywq7gYcsIfgsG60lLZ7/DzcKX7i2zUHomGQIqieLzhvIoK3xz/gEc33eGj1tQu/3CakQFRYVMso+Xf5cFtW2L/z5zxHo/OM+JyXvBrbf78+fjNlj9RoUNVbx87NuA1m3W5f2985OhVFLCiC8N4rLLipcrKpyIRbEQJ8uCpSMQsQZjy2jJPaBi6pnl08wvitlnTs66qRAzR27SXGkfJlLChrGxTKOQMYCRKQKYD5AT0ipSrJhysjqqKsj4Ww0ONVpWFIz4fwhj3FxWhdgL8DiQnbLBqNq+rqGC/g/svDiFEIFCUb1GhpPQ7Qogrr7zC/RsbtUfSjMTCWnP9ZJdrf0aH7Xt9QE7gGcnoMqPWUN9Q1fb8iArHJ078hmZSAk9NRlMzSkEBgTMzVHVdLLbG6sG4sqoqNSssj0ToZzTJBrA1EOFOn+8pS42gbootn75DS34Wg7NfNlAHarxVm5Zg8ziAEuRMBzgd0PyJmkq3eDzoDrW6OopUCLNmc7x8wv6iIvI7kJwgZ0Wuq6hYUxOzWSCja25UHUw/YT3ecJ7yJMPVszkyy/1FRTOiatr07wRbt+S433RT3eRp1wTRYNr9u+IjZVFBCPE348adqyjPrQPi+MSJN1gl51lOyPR6G72ggKX3pcpKAgWZFbDky6LC8kgE9YXgSysNhWBrwzDu9PmWx50UyyMRExSshfTuO/763OGGLBCh++judSuXUQdqWUtAF+lkWoKNEkhLQNsniAondf2kri+PROpjsaZ4cwc5OkEusuSsxriuomJBKKSpKipGZHrBjcLjka6tKIrXV5VzVqiMztJ13TCMad8zY+z5nxsL0IxoFivkMFWydcsEs3aCriuKwjPiZi5sxwghJkyYgN8hd4wdm8OoxnMV5VcXFfX39/OHxWZzN3dHKygYxjqrYNG6CtPvkJAVbJRg3o1GgaIDv6ctX8OdPt/qajP48ZItGu03HRHGX8+8acXSRV++/7uOI7tStIjsbdpz7nDDx1teX7F00eMLH7rYgVpRMqYEr/eotfyDEr72ek9ZZECUQEWWICc0eb1H4kWWkpVP2FBWRn6H35eWejgl0s1nSzqGvv6KQ9fkMFjh6kmLff4IctClV+NheguAFTRdr6nSNz0/sy0XUY2nt1z574tuRO0EpoT0c5DkCPqwfENVN02Z0qWqg9cVugKB/+/663XL6cBTk8TwqXaPRlAwrLgEWvlkVng+HF5ZVSVLC6aQIEGAWTzAkhAWhEIro9EEiBA/+KlI5E6fT1UG/t10w6SH59+7buUy52YjAzxBVZSZqro8EkEUYV1pKVVVShi9CC3hqEUJTVYRRoACtIRWj+eExwMt4YTHQ1mRphtCAgXyO1BWpDOMcX1NTaoLih9LaQHTCxu6Jie6QmV0ls8fSflq/GB6CwghYmF97vfKBumDaKqb/L1ruZNqeoO7P0IIUaOqg/dBHJ848X+HQrqmuX9pPtJmgVEHCoZhLLDCAOUY/tSsIMcuPBWJID8CACEzxCWKAoIVLKUBuKAqCjazU4OmaZqKW8ICOiBUUrIgFFoTq7alQcpVlSjHAZmQ5HGgOs3kdGj1eE7pOm4JFE54PDjgmAUWFMZI0QlyGKMsJ6DOku0a4rsZWcAwjMHHK4SrZ+tWzGxGL80HJ7SAYRiIV8gytnHrmKa6yVeN9XGkSELzDmYntNu/GTcuu9jGLlU9PnHitwMBnprBzMKoS48UQtzp8zVEo7YuiK+Vl4MVyA3hlBYIFwAHdJckB9pPDIFjng+H10UiZtRkrBrlGUIlJcWBovKyUjDBglBodXV0fSxWH4sBX3Arhy5uCwa3BYMptAQ5ExLRiyc8ntb4Bu8DiAGuBxRZSignpMiK/O+yMgbzwXzkyDvu9VVl54b4du3iktLvsKt1MLMgP5dmRNP1WFh/etGNGeFCc/3kpxfdGAvrHt3Dzm/ZsIMfkw8C0sKvJ092jwtdqnpi4sSf1dZ+wxISeGoGOR2jS1EQhlEfi8kVhOjnso0VELVAuCA7IwgRMhrAo4Hb58NhbGus8IiXKivRMJq6QRIiwN0ghy4m1BK+ijeHpNQGUMJpS044pevYwA0JQUEunyDLCXB8oBoj11ka5IcNT8fXH1Z64MK3axenret89aTFhAj4mcWu1pxMB35rTpgwAQN4Ip5edOPu/5rdtmVMwtiFts2x01uu3Lz65n9fdGOoWKcn8ozkakboPPRhwTVfo6q/njz5yxtvPF/kTxi70KWqXYHApilTflZbW6OqCErgIB6yZ9aDUQQKCE1oKClpKCnBD3ToCiiHTDUHyQ1BrIBFXV7p5TiGhAzhPHhlVRXxwfPhcEJEoPYNKJNAlRKcQgLVXpQ7QyLygISE0x7PaY+nLU4JYAWihK+93iavl7pAUXQCukDJLEWWMatNcF/prD9qlz5RCIHEGXwDen1V4erZ35ow/8qrf3X1pMfl28rorHD1bIQj4OCqqqpLT8b3cmAB24xomvZXY7x3TS/b9PxM2zbtmiAcDYQIPCM5mIDkp5CnBja/uqjojnHjNk+dKm+bpk7936HQ1UVFZk6WFbcohOCpSW7XDB4ZLaAghLhZVT8PhaiUEFgBwXpUdlBeFPFDHyu6DA0JISDhTpkMnBKCrCLIiCAnQKJSQkNJSUIh4YjPR0EJqLp40gpHACJATgAo4JYUBSAFQMHW3IH8DjbvDNQmQnsoAAAgAElEQVSOmRwQlMGHK/2hQgjqQGbl0BhmqEo8hMUcqJquDRT4kw9Of2o+IisLkJHNhl6qaX+rC1s8Jjn+v2Z9EOjgrF6Kn5SZBWRrg5iT3QIm6JOV2cvw0YksMGpAwTAaolHn72b5pzPcEGAFeCLkwAUnMTg5wLmHngXssHkZIOnD0bChrAyIkFBIQKsnW+gishvQFrLFSmpotVQECAltuk7bKWuM3AeUcz5mKQqpwxjJ7wA71MViHKCQ6EOUg33oSR1O8u8HP/hBDl6DT5GJBXhGMrFWQY/lqSmoua0XGxWggEwHqk9si+2XWQFLIyVEkG9+XUUFQYNNaSAUkAcyFshwgN/lxAdyLMKmUMiJCLKQsL+oiLIbbJ2jT8RjEaAlnNV1bOc0DawggwJSHo5ZfofD8bLNsk1gEFJZKHrjxVh14S9QfkW2AFuALcAWuLwWGPmgIIRAx0UsihAV5HVRrhlAUQukLpDAQBoDoMGJDgQHQAr5MOKDN8rKsOH8qI4g+xp2WG2dZV/DvkDAWZu5yeuFMIDqCIg/ABPIlHBO087GdQV4Ik7qeovVMRL5Dk542lFSYmvuQKBgdrvgf2wBtgBbgC0wyiwwCkDBMJZHIlgXSWknHwSFLGCF/kO8pTJ56BMSAyQB+RZYIO+Rxwn5gCQEJDUgYhGIQEICEOGA3/+F33/Eat3U6PPB14CwxFYrXLFN1097PIQIZ3UdiECKAoU0otoS+R0QoAAWsYUxkqwC7nmtvNx9C81R9iHiP5ctwBZgC4xkC4xwUICc0FJWdszrlXskHioqskkLWCbRBomcEYQL5JKQuYGW/2QDHOwUD1IgwgeBAMIR9gUC+4uKDpG7wQopgJCAMgmITIRPQUaEs7p+XtPOWRvJCQAFVGlEBYWvkpRtTuZ3+O+yMr/fzzEKI/nLgP82tgBbgC2QyAIjHRQM46lIRP4ZTQmBYAWbtODEBZvGAGcBAg9lDnCOya1AIYoIQYB+gOpJlPcICUFGBKgIh30+pDYgbpHKJIASyNdAWHBe02iziQqouWTLd/jC70dTaSgrTr8D5IQ1lZX1XLk50eeH97EF2AJsgRFvgZEMCkKIOT7f+VAQ0f7wzcuq+yHrJ/v+uLqAX/O7iouBC4hdoFbLMjFAErDdykBAD+FZ+JlO1RVlLwNe1IkIiFts9PmaLC2BIhKoklKbFbEIRDhvxSJASyBFAQ4IClOAnAAjNFr8QYmR5H8hKcXmd1hTWcktHkb8dwH/gWwBtgBbIKEFRjQoWC0iT1r+e2KFi6WLvV70Vj5UVIS6hLIzAmsnEYMMDVSAAcsqUMB2i2PolkIUKQTBJiHIjgZKbQAi2LIf4Wtos6IQiBLOa1qHpCWc17QLqopHKUxBBgXyO5CgkqJ8wkuVlWYVaktR4D7uCT9FvJMtwBZgC4xgC4xYUKDoBFopT1uND1CYCLoCohaQDUG4gMg+3MoagxMasPynuEUVSCcckH5AsYrkaEClRQgJctAiEiBtvgbyMnTEQYEGcpgCIhUQ/Ih2kVAU4HfYFwhARIF2grAMufDUQA/u6mqqjzaCPw/8p7EF2AJsAbaAzQIjFxSsZAdaL4ELp61uy2AFkhYQtQBcQLrgAb//gN/vJAYbN2B9TXELWcLmXMBp4e+Q+cCW1HDM60VEwsl4DWaiBOIDCAmAgw5NuxDHhU5VxR+OW0Qy2gI13Oc7oD7Ez8OVtktneN0Vop+3/FlgEBeD6O/nLX8WyHBm8neJ8JmFyHAyhtDhIxMUICccD4dJkCdXvdxBEZF9zVZHJXLb24iBIhhkbkAZBiKAZAP5KTgPSivKfIBwxcZ4VyfEIgBlWj0eUALCERB8AErA39VlkUGXph2qjj5WWVFWVvpYZcWvI5FfRyLLIpHXY7E6a3svGv26rOyE33/c6i5NFRRkvwP6X1CWh6woPB8O/0dlZTQaGUKXbYZvRYj+tF2X+ICsLfDNbz+Z4YTQ4eLMlhhvebNADRna1UCIblXlLV8WGM7170cgKJgFwK1kB6yjpMbDZ4/f5UgBIDX+a6+XcAH++yPx7MEvrBoG5Jig9Z4CGmQakNUCOhL6BBIdEX+A2AiSEGyVmBGuSDWUKPWRhAT8RV2aRqDwWGWFVYRelf8piorK9Gb7AFX1+Xx3+nyvx2IHq6OoJyGDQrJ8BwQomN2ldbNL3jD9x6CQNQS4eSKDQt5W+kFSFIPCUOIeBoWhs35YrVzUmap6PhTEUkq4gIVWlhaAC1RdALhAxHDESg3ALZZ2ggas+iAA2y2cF3SLp+DplOuIAswonYRABJRGALg4EeGsrhPu2CihW1XbQ8EZqgkD9z+8ZMlzb9F2/8NLotGI1+sBPSjmMQP/7vT5FoRCgIb9odCu4mLKd0AvTarGiACF3OZGFj4ikkHBzXqf9TEMCgwK+foVPpIUDgaFoQMKZt8wS07oVVUCBQzoFzmkBYT4YVU+qeuUFPC1VR35mNdLAY8DlZq8Xic6EAHIUgGAQD74qNd71MpyxC3VTcJrUY1FKrNIKgLcDYCDTusv6lbVzks/PO9Fo6qiaKq6envbirdPrd7etnp720sNZ17dc/bVPWc3fHyu/sOWDe9+9OiyF269e9748ePNbniXdsRbEAo1VFdvCwad/R0ACsiNHOQCj6cLISoqynHBUPM3M3zgkn+2u5c8lsUdBoWsIcDNExkUGBQYFNJbgEEhi+/uPD3FMIyZqno8HHaCglNaQITjWStasNXqq4Q1G3F/iGBAzCOgAfmKiCeQb7+y2j3b9uBuc7wQAsiDQhDohUg/oEAEaB5AhAtWWGKnqnZomu1C7LVwoVdV62IxGRQSssKWz89v+fz8e4c73jvcAWi46/ZbrrhinK7pZltjVRVCPFha+lQ02lBdXVda+lp5+UuVldRce11NjRDC6/VkPWtCiKKiIjwdfGAYhq7rV1wxbu7ttyz+p3+sf/nZF9/atmO7uT3zxGNZv1DCJzIouFnvsz6GQYFBwfbtxHcTWIBBIeG3c+F3CiFURXkwFDIUpVdVU7CCHORIzgh0TEDRQ1rIEVdIt7LegLUfvgMaywMcTM8Ff0C9wC0VRaC6CCR7mFkMqnrB0g9sEgL+tG7rD+xV1eero4qi3Dp33urtbU9ubk0IChs+PiezwkeNnR81du46ePzFt7bd//CS6VOvM6Ou4/9matqDpaXramrqYrGXKyperKx8xsqN9Pm88UMy+8VPz7KiR4xQMDh+/Pjb7p63c+PaM2dO9xr9vYYV+C66e7svdPeJ+pefHaR6Ybv2GBSyhgA3T2RQYFBIsC5eKnzyAd0MCrbv5ct1F8kOh6qj/YpCrJACF2hVJmfEWas6ExEDSi+gWFNCdAAK0C06OFMVRUIEgoOE+sE5qVYSSQidEiJAPCAyACiQorAsEtE0/dFlLyytawUoJGQFJygcbOk+2NJ99FTPwaOtjy574abpMxGxaOUxmYu7pppiQzQaKQ2FTJ+OEKFgsLy8jLQBTDQ4wHIfXAQIkAfow+v14Injx49/5B/m7di+7ciRP/f3G4bo7+np6uk8i627o62n82yv0V+3dpWu5TJ2kkHBzXqf9TEMCgwKzAHpLcCgcLnIwPa6pn4eCoESDIsVZFxwEgNFCMrlFkj5P+3x2DaIDTbJAQBBD6EyEoBAvkW2BdVCoCgEwMoFy7lA+kFCCYH4oFdV6e/qUdUFoZCmqk/+dh9Awb2oAFAAK7Sc7W0523vwaOsrq5b//SNLrrzyCpMMJJlBVgVs42g0cuvN0xb/0z8+88Rjr6xaju2fl73wyD/Mg09hx/Ztn+3/7LP9nx37y18MYekHEA862nq7L/R2X+i6cAas0HXhTH+/waCQ9Zp9WZ7IoMCgkH6ZZIGBQcG2YF+uu8IwDlVHCRFoIC+xyXCBnBFYuWWNATIDQQP0htNWTANuUdGIWjnbmICCD2xwQIhgczEQJZBmIJMBEIFuDUWJRKrUOCjYRIWXGs4gqnHDx+cSeh9IVDh6qges0HK29/SFvtMX+nZs3/boshfm3n7LtCm1fr/f6/V4vZ7i4gCwYO7tt9x29zzIA2fOnO7uE9jgR7AuAFMwwCYsLAAT9HZfABOYXgZLQui6cIZ2dl04Yxh961Yu8+jZx0M4Lz9WFPIKEAwKDAoMCuktwKDg/Gou/B60gDI0TcS1BBkU6Cd4MmiAuiBrDFjIaXVPMZD7M4EwiDMwwKnkjgyAA5IQkMsgI4L8PukPcQ7aQ0FFUTRNg6KQUFR4qeGMG1AAK4AS2ruMzh7R3mW0dxmnL/Qd+8tfsJ05c7qzx2QCw3IyDHCApT0YYqDAXn+/yQe09nd3tGEjF4PpX7CEBCIG+SEh+m67ex7HKOR1ac/tyRkUGBTSL5OsKDAoFB4LnK8oDKM+FutXFICCExewysoLMI1xlVMJI4IGWuBpQLgAbwV1aJSdF3SwPEBwYqcUn0hYYPuMkX7gxALnnpZwWFEUXddWb2/7xcaTMiggUkHOk0wRpuBUFEAJnT0Cm00zILWABghPGLg1+mQUIM+CDAQ9nWdlgCB1obu7864ffl/P6YeKFYXckoHtbAwKDAq2LzG+m8ACOf1Oc66Aed0zQiozIoyxOxAAKCSjhBSsQAGD3fFyBUinRGoibgkgbH4KAgI6wNaFgYofOOEAsCIHKjppwEhOPwerzSIKfr//yc2tAIW03gckSb53uOOjxk45TIFYgUQFmRVkz0KvMeBTkCmBqtVbYY/dxASghK4LZ5y4QGIDBvBB/PnPfwoFg7m96BkUbEt7bu8yKDAoJFgXWUKwWYBBIbdf61mcDUWW+hWFNtIVUkADfrvbvBK2K56yD2hANIABlWfAQK7yhAOIEkADdH7SM2iQEBFACcJiBeffctDKjcwIFFBQARmSxApHT/XIrgeZFdwoCkQJIu53IAggYsCAXBK4S4eBJHq7L/z5z38aTMGGhBcPg0JuycB2NgYFBgX6WuNBUgswKCT8di7YTsgJ7RXlRAkY2BZX5yprW5jlH/e2Rd059zIQ2MY4uMtRIkmWDQgOMLC9E/ku/RUYyA8ZipIMFJy5D27CFBDPKFMCghUQl9DdJxCr6FQU5GAFIUw5gQgAQEByAlwM8qM07raSID797FOfz5vbi4dBwba05/YugwKDgvMbkvfYLcCgkNuv9UzPJgxjtVU7wQYKcEOQMyLhQmtbd+mubSHvVdUeq8CRfe7j4hJYAY9StgLRhvNsKfhABhqiBDn2Qv5D6mIxVFtaWneJ68EJCijn7CZMITtQgKhAYYy0/Pd0npUpgfbbBl0XznR3tAnRvXPj2txGMlquEO4e+WRu4UA+G4MCg0KyL0bef9ECDAqZLu05PD6ZnCBDg4i7JJxrMJGBcyCv7u2hIFWGpv0pFAJiBYpMpIGc2Si/KL03ggN5kAx3XjdBwWwH9S9vHpdjFHIOChAVkikKoAREJ8C50N3RRnxAAxsc2NQFgELOiygwKMiLej7GDAoMCheXw/hvJ95jtwCDQg4X/kxPJQxjeSQiY0GyMa27KWID5ZVbHiNmsCEaJUqQBzjSuUc+g21MWEAhCDSg90kD/EV0FwOccEEoBFD4xcaTTlDILvEBisLpC30pghlt3ocBOcFKdpAlBFuAArkkMJBvwRCGMMsy5raIAoNCPuBAPieDAoOCfVFkXHBagEEh09U9V8ebZYYVBTWbk/FBwv3ORVdefW2Leq+qLotEVEWpj8VsD2V9F6Bgexu4K2OB883TU0xlwus120tb1ZYACvnLkEyR9YAARqrHjLBEUhFs3AAVgYiBNIaBYEZDPPPEY+x6kJfhoT9mUGBQYFBIbwEGhVwt/JmexzCMn1dWOFdTN3toxcVAlhlsD/V6vTOsvszrYzFSAmiQmhXoMPlVbOeX77qnBICCcikoLK1rlUspOFtOu49RSK0oUGIk1VlC+UV4HCiFwRbJSAIDuScIFAYUBUM8vvCh3DZ6YEUh36jBoMCgkH6ZdP7CHm17GBQyXeBzcjx1lHaDBS6PkddsGncFAuZ6rCgN0SjtxACUQDTghAZ6SH6iLeCA4CDtm6ST4IV6vV6Awoq3TyV0PThBAYWcUUoBGZLOKs62YEYkPsiKgkwJAAXDcjoQJdAAcgICFSkiAWID7ZRZoafr/Lx75uieXNZvZlBgUBiqC3ksz2+sJrNvWiF4vc+jBRgUMrscc3E0Oko/ZLWASru+ZnQALcYIgRSKguqHqqIcD4flR21jNKMCGeAh2kPRlIQIGNAbkw+gnc4BvSJAYeCNqSrKMrqJUcgCFBLWUbgkRiFOCfKSL4+djgZ6VH7I6g51evz48bm4QC45B6dH5pUVWFHI83qfNU8wKKh5XPgzVUQYFC75Vi7IHTfJDs6F1uUeWo9x/MtWCqKqKO0V5UQP8kov78RTXC78Lt+PfE68NzhKUERBVVX3ioIb1wP6QiGSMX0dhXgAo23tlwmAxglVBHpib/eFtrZTDAp5XdTzcXIGBQaFIbQeZ7p+F+x4BoWCsMElL2IYxmOVFUY87zGjFdf9wZAH7vT5VEWZqaq0YMscQOKB+9NmdyThC7FCnkDB5nqQFQV7eqTR19PTBf8C1ntiAnmA0AT4IwgLnAOUZYxGI5fMdC7usKKQDz6gczIoMCgwKKS3AINCLr7MMzgH5ITzoWB2K25Gz6IABXScyui5uT3YCQoDUoeqotGD0/XgjFFwoyi4AQW4HhDAKOsE4AMiA3lAZEAMQXswEKL7088+ZVCgBXi4DBgUGBTSL5MF++E+ZF+IQSGDRT4Xh6YoxZjbtblfUVD6ULMCFHJ+8oxO6ASFZZEIghlRllEGhRVvn0IRhdXb2zJtIJm2jsIlwYyWqEBZDAQKBAG0h6CBohrpGAKF7dvezXlHKA5mzDdwMCgwKDAopLcAg0IuVn+35zAM46FQyNC0jFbZ7A7u9XrJ79Dn9WZ3ktw+i3ChS1UXhEKqqn532ky5fnOy9MhMez0gPRJ+B2evBzmYEXUU0OIhmVpAlEAH0IBwAdWW/H6/20vB9XHsesgrKzAoMCikXyaH7A/9gr0xBgXX39iDPdAwjJtVtb2iPN/RCVjdKd9hZTSa2/U+u7MRJQhF6VMUE2J0/dFlL6SutpSdoiAHMyI3kppCXaIoCHNOrRuz93QKaQFAIPOB7LMwO0IZYsXSRbrHwwWX8rqu5/zkDAoMCgwK6S3AoDDY9d/d81E44VD1QDGD7NZa988SimL+ZLcqKBwPh90/MX9HyqBglmXUNLksI6otQVFwuh4yVRQIFNq7jLSgIE8gAhcgIZCQkKwgI8kJPZ1nDaPrtrvnCSG4zXTO1/K8npBBgUEh/TJZsB/uQ/aFGBTkdSJPY8MwZqgqIgqxXuZvPcaZuwIBVTH/PRgKiYJ4Otz8RcQKeHtOUHhycys6QlGjBygKWYNCqqwHYaoIkBNwi9kX8ZxJGRTACqQiyNICGkw3Hzs2bUqtEKKiojy3VxG7HhgUhupannWNBDdP5DoKXEchN1+lSm5Ok+ezyOWVaKWUKxm4WWIzOsZQlAPVUSrIWBhPh8t3CAuYoGD9S1ttKSNQSBHJSK4HJEnCAXGxb+Sl1wDcEFYNpTNy3wdZaZAxorf7wqeffXrFFeMuPU1u7jEoMCgwKKT/LHFlxryqEawopL8EB3cEQhO6AwGqbChXMnC5vmZ0mLAiABRFmePzDbUwRoAClWVMVm3Jpii8uucsyjJu+fz8e4c7UL/5o8ZOKuHccrYXW7L0SCqi0GuYKsJA8WZJVLBNMoUsEBwgggG3UBRIVzCMvh0bfpOPSEbOesgrJVx59ZPsehiqFMKKAisKtm/lLO8OA0VBDmB09mLOaPl3f/CAsK8oa2LV7p9VgCNJUEHn6xRlGW2gkCfXg9PvIF+JTlYgaIDMQDEKQnSbkYyaLj89V2NWFPLKCgwKDAoco5DeAqwo5OoL3XkeIaU5UAcmLJakLuR8eRaKgqKH2fWwzvn7oRMSJfQryntR0zOiaVqyaksECq/uOQs5QW70QKLCwZbuo6d6sMmKgq17JDIkZacDuR6csybvscUrECjIfgcTF7o7b517r56fzxKDAoPCUF3L3YQaZH0MKwqsKMhfxtmPh66iIIQQVp3m86Fgr6rKjRnl9ZIWUZeDrkAgbQ2GPivfAX6HoRPGiD+Q/vbXrQ4Ufr8/LShkFKOARg9ECQl7PcjpkW4uPeRB9HZfIP3ATgkdbW1tp6ZNqXVztiyOYVBgUGBQSP/B4RgFjlFIcpUMUVCAu+FQdbRbVXvjGykK5IDINJ4RDoU5Pt9BK8cyGVuYh2maqijrYrFkx1yW/dR9SigK6jeXlZcnq7ZEisLgQaG7TyRUFCiSMcnVdXE3WEFOkpRZAZGMnlx3l6aXZ1BgUGBQoI9D0gGDAoNCkotjKIKCYRg/8vkSUgKxAnkfMlqwuwKBmaqZ8zhDVZ+vjiaTFqjOUsPQqLNk+xvRqgplGW3VluSyjIMEBRIV5OKMTteDIadFJrnI+q3IRygKxAcUxtjd0SZE986Na3NeZ4neDoMCgwKDAn0ckg4YFBgUklwcQw4UhFWh+Xwo2BmfM5uiQHJCdokPB6ujc6xukCk8C/8ZT4xsryi3LdKX/S4IydC0QKAIRRT+5c3jqMyIgkvJ6ihQ1sMfD7Rg+/BoB1IeKExBjlFAwSWZEig9MlPXA649w+gjOCBcgDPCMLpunXuvx5OXSEbOesgrJXDWwxBGEI5R4BiFJCt/hruHECiYPygNY02s+rymnde0Dk2jOFKwAoUpkJ8+O1bo83qfiUZRcvHnlRW2td/QNPR3eDAUsj00FO7iT/46HFYVRdP1J3+7T67fnFpR2PL5+f/zxjtWESlF1bSbps/844EWSo88eqpHBoWEigJYgUABSZLuLznqByGDglVr4fT48ePdnyfTI1lRyCsrcNbDUGUFBgUGhUy/LBMfP1RAQRjGTKvw4rk4JeQPFLDeL4tEzLVWUTaUlckEcK6iHHWWLntfafldYSwU5VxF+bJI5E6fD30jn/ztPmfrSLkyo9w9cvGzbw5QAko1WQ2lXnzrXZuiYItnlEUFKqVAKQ/uPA8XLz5KgqAekuguXV5edvGgXI8YFBgUhupannVGg5snMigwKOTmy/TygwJlN7SUlZ3S9bO6TooCvA9O1wN5H2zBjAero+9Fo3Wx2H9Wm7d1sdh70WhLONzr9fYm6v34nPW7fKaq7pfEg19bvZtnWq2nnEv1ZdzzdTgMPsBij9zI1dvbUrseCBQ272//7rQZqqpOnzrpk63rv3z/d9Om1GqqqSscPNoqs4Kb4owyKGTKClRcAazQ39+/Y8Nvct7fQf58MCgwKDAoyJ+IxGOOUYj7u0nMzuUgP7nfiacy13svMyigTEJDNHrC42n1eNosUCBRIS0oyK6HcxXl8CagQYM8RvRiXSzWHgraVvoniooURZmpqii/KKw4R9Xq72A78jLebQ8Ff2nhy4AeECcFudrSLzaeTBijQKDw6C9Xo4nUJ1vX9zXv7Wve2/LpO3f98Puqqt3/8GJnKQVqCiUrCugORa4HDLK4JkX/QJ9JqxeUeHzhQx7dk8V5XD5FiP5vftssIMhbPizwrf/1pMuJcBwmzmyp4S1vFviGw+ApdwjRrWm85csCer5isFJOam4evGygQEJCc0nJ114vQAGKAoECeR9sMQqkKMiggIwG4gPbAN4EXdWeKCqSn9VnMYGqKK+Wm3GLhrUGq4pyqHpI9JXuCgSer47OsDI14GsIBYOLFz500w2TFEXxej1Uv5lAQQ5TWL29DaBQ/8HX3502Q1GUu++4BZSA24+3vK4qiq7pTlCgGAVbKQVnmELq4ozJrlNqBnGusy9/FRSSvTrvZwuwBdgCbAGXFrg8oICG0csjkUaf7yuf75jX2+LxnPB4Tul6m67bQIFcD86ySzbXw/lQ8FB1tL2iHFWShKadDwWPh8P1sdiDoRCSHVSrmFKzphEu9FmKQo2i9CnK+16vqig3xwWGy6gi9CvK2YpyGRHm3n7Lzo1re5v3dhzZBVAoLg5QtaWEoIAMyVf3nL3/4cWqqk6bUtv04WYZFHoa99z1w+9rqrrh3Y+SFWckRSFhKQXqHunygpMPE0Zff7+Rv15Q8mvxmC3AFmALsAWys8BlAAUUU2qIRr/w+w/7fEcsUCBRAd4HZD3IigKlPMilFGygIBSlV1WJALDM093uQOB4OPxgKASxYUEodCCOC626HrO6QMUURVWUoVA+YWf0opAwfUqtiQhNe3sa9/Q27+1p2jNu3FhFUVCWkWIUiBVsGZIbPjr73WkzPB598cKHehr3yKDQ27z34fn3Kqr66LLVMigkjGeE34GSJHuNi32hUHkp02AFXLLbt70bCgazu3z5WWwBtgBbgC2QbwsUGhQMw7jT52uIRvcXFR2Ig0KT12sDBRIV5GoKMitkV3AJ6HCoOgpcQCmF80X+fkVBsALiFS57+QSiBFVVHpl/b9uhnfLq3n10Nzwk9z+85BcbT6YFhcXPvonoBNt5cM7HFz6kaWooGEzhfSBRAazgLLvkvkSj84Levu3d/NVkdL4c72ELsAXYAmyBjCxQUFAgLeGDQGBfIHDA7//C7z/i8wEUWqR4xoSJD05QGAwurI/FUKWxRlH+6PUuCIUQx7A8EsnC4yCXdpDHWZyqPhaDx+GmGyY988Si3iYz8FDeOo7sUqzAgiXPvfUvbx53ggLCFFa8fWrF26cQnaAqJnDIJ6HxiqWLVEucSAEKCcMUoCjA9TAYReHIkT9ndMnywWwBtgBbgC1QSAsUDhSIEnYVF++7FBQaLe8DJT7IYQpdVtmlXitrxQkKWSzD8lNawmGwgl9XYvEwxrTlE0wHh9fbHgq2hMMt4fB70ejz1dE7fT5N0zweXd5mqOrLsdjB6ui5ivKuQICcIPJ7sI1JS7jphkn1Lz9r+hocoHD64ChOvm0AACAASURBVI6BIgqbW22gYPM+vNRw5v6HH0d0QkI5obd577qVy+DFsIGCzftgYwVQgiwtZM0Kx/7yF6t4YnaOi0J+WPi12AJsAbbAaLRAgUCBKKGhqGhXcTEUhf1FRVAUAApfe72t8XhGqqYAUHC2hkqY+GBbdCmCgVZomwKB+kVzrOJFSDnUNc2MhbRQoNfr7QoEugKB9lAQW0s4XBeLPVZZgYOT3SI/0/noglDomWgU3IDSDvTG8M7r4lrCNIsSepv39l6qJUAG2LHhNwCFFW+fSgEKK94+ZcYwKoqqKs88sajPARw424qlixRFCQWDyUo02mo5pwhpzG6p37F9m2EYuq6Nxs+f9TebGUDJ/41as1zePzz5hJiPXN73xq/Os1Pga6AQoIAch4Zo9A/B4I6Skl3FxWAFClMgUKDEBwIFOZ7RmSQJjcEJBFh3ZSzAkizvwbOEorSHgpRcoGvaM9HoY5UVC0KhYEmJx6Or8dRELPwEAbb0S03T5vh8D4ZCD4ZC/9d58fPKCozn+HyaFSBJT8R5AoGiYEnJglDoZau6g1CUFVVVOGb6lEk7N64l14BzULd2VVpFYcXbpxavesPj0RVFmT71OlsMo3zOxxc+pCjKFVdckRoUnIoCuR6orEIWooJh9K1YukjX9KKiogJf+pf95ejL7sc//vG1Sf7Nnz8fcgsvToWZL56Uwtg5u1fh2cnOboN/Vt5BQQgxw6rNvCkU+kMwuC0YbCgp+SAQ+CAQSAgKVHZJDlOQQxptSZKQFmQykEME3IwNRamLxbDwkwxg4wC66/f5AAQN0eihanM7Hg53BwIEK8QfJG90BwKHqqOUokncgIGiKB6PHolU4aWnT62lgkjyci6PoQGoqrq0bsD1YAtTeHJz6+Or3hjAjqm1h//4e/np8pjSI5c891baBlE2VrAVVKBgBXNhc31h9vSJR/5h3mhbBfF9d+2113o8HvruE6LfsZkPGoYRCgYnTZrEDhrXl1U2B8qTguebl6Vjw7UqhOBJycbK2T4n4exIn52LQ3xMeHaytXTi5+UfFAxjfSy2oaysrrSUQIG8D4hn/MqKZzwWL7vUJlVTQJ6kExRsuOAEAtk3gUchP9iOxM5eVT1UHW2wtIQrxo19rLLiRQsCwAHHw+H2ivL2ivLzoWB3IEA1HJ0vYTs53SVo6PN6UdoB6IAISqKT6VOva/pwszMoQV7a+5r3QgNIBgqrt5824xKskw5gRxKnQ1/zXgp3OHi09aPGztSiQsLcB1lXQI8o95RgfaT7zL6R+SzLmPjCv0x78X02YcIEfJ0ZhuHxhj3ecGV01tWTFtu2QHCixxv2+qroW5BxIR/zZpsUCwVMQrtqrPfpf51q22qqdJOEaUqE4EnJx6TQOeXZGWBlC5/9Pt/C2lrbpmsa2I7mh2eHLDmYQX5BwTCMBaHQG2VlAIVNodC2uPfBmfhgK7t0Nl55ySUryKGONCZEEFbVRdqPgbxTHuNRm6dDPhURAJ2H9rgZEDe0hMPk9Zg+tfb4Z++k8BEAF3qb9vz1zJsURfnutJnIjUSYAkSFFX84eevce+PixHUptAScDV6M4pLijxo7k4FCy9leKucMUcFWUIFcDxhklCrZ3d1pfrZHxz/DMKZ972ZChEBw4jfHP3D1pMWpGzFcPWnxN8c/UBy6hr777rnnntGmweTvArFNSiys/d2c8ZtXzzz2P5NPbZ1wZlPs4lYXO1MXO7V1wrH/mfz0v079uznja6p0npT8TU1/f788O6apDeOOsWPfmDXr5MSJJydO7FeUPq+Xti5Nw/5fX3/9HWPH6ppG8g9/ZAY5TXkEBSHEnT7fhrKy18rLk4EC4hkPxxUF1Gck7wOqKcAH0amq2OTARiraaCOAoXCXwEIWHuQxDliAAlCqmtbjQKCgaWbzx1vnzpMQ4cSvNp1c/OybqNOsKMpts6YnTHOQxYnepr3z7pmj6fqjy14AKCRjBbSJItcD4hmppoINFDKq1YiUh0FexMPi6fSVZxgGECE1HzgflXGBv/hyMumYFPh3gAif/Xaa2T5qk4vejJtie16dLeMCT0pOJoVOIs+O16P/zdixX06d2h0IXLCS4JAKZ2va1KVpXZrWYcWk754162/GjTMFhn5TAOLZIcNmMcgXKID+6mOxdRUVBApwPewoKUGYwj4pTAHVFFo8HlRTQNMHp6ggswKuCfrdbxvAN2HzUBhW6cbCYARJC6Q6OClBKMrB6ii6NshLeIoxiihomv7oL1f/atNJc1v/CVQETdVQWOmn8+9NmC5hO+0X7/9O00zq2PDuR+8d7kghKhAoECsgQIGqNMqsQIqCGx/Eju3bsrhqh91TDMPQrN83hmFURmc5IcD9HkgLCFxgXWEwV4KVa2NKApqmjh/nHUCErWMy7TO5+79mk7RQGgrxpAxmUui5NDuqopSWlAARun0+yoOzIULCu+0V5btnzyY/Ec8OmTfTQV5AwfzsqeqdPt+6iop1FRWy6wGJD854xiM+31Gv1+Z9QEGFc5oGaQGUAD7A5YJxQo2BxAbbAKxg20lUIdOGTBUEHPTEZLRBRyY7QN4vFKUlHEYKQ1qnA5b5lk/fhmdBUzUKbsAZzBbSVrHnhNUXbJTQ22R2eTC1h7vnfdTYmRAUjp7qaTnbm7CgAskJTlYgUDBBPuX1KISYe/stI/6LFZRgRq1asQjumSDZkYhdUBSFv/hSXl+pHsQ6ZF6ihjF+nPfY/0w+kzkiEFJ8un4aWMEwDJ6UVHZ395g8O6CEXlXNCBFkbtg1a5auqnAS8ey4mwH7UfkCBWEYkBNIUdhQViYnPtjiGaEoHIvXcpbzJM9pmpwt2WEpS4QLKa4eaFMJFSqZLeiSIgiwDeSDbQ/Z7hJbYL/MBMnGmYLCucMN026YZPoepH9zb7/lk63r2w7tdEkbfc17P9ryuskZZpeHF9473IEttahAkQo21wPKLtmiGtNSAvTA706boQ/n7qv2z5PjPsmnHm84bThCMjJw7r960mIEObKg6jB5+h3kBhKG8fS/TjVjEQZBCcCFY/8z+ac/rtF0U6LgSUk/B8mPkGfn19dfj1gE+pbOYtCrqicnTlx43XX4zuHZSW77pI/kHhQgJywIhV6qrHypspJAoa60FKAA1wOBAoUpECu0eDwovtTq8Zz2eM7qOm2IV6DMSbijSFfAXflKonQJOcSBdspHuhkTc9AAzyJcsN2l/ckowchcUehr3rtz49pXVi1/ZdXynRvXHv7j7zPiA+gKXUd3IyLytrvv+6ixc8vn57d8fj6hqCArCgkbTyekBKQ/JL3o4g8YQugeT/zeCPxfCIHoxcF7HJysQOGN99xzzwi0Xd7+JHlSxo/zDh4RBnSFrWOa6yeTD4InJbsJlGenJFB0fswY25etmy9q5zFmnOM115APgmcn09nJPShAzauPxdZIoADvw6ZQCIkPDVbZJarPiO5Qhy3vA/o+UI8oYgV0laTeknKcIzSGDiuMBUDQoWk0QMkmAgXab9uDu7jCQBIyT9DB3VJMpfNypD1ABNwlXHB6JXpVlRSFzq9227wDKe5COUAzSTfhCPKpBjpGKoqmavUftmz4+Bwowb2okKs8ScNsMz2S/8Grkg9KADeAFfA7aSTbMad/G03KgMdhi4u4RZfHbB1DPgielOwmDbMjhKhBXIIVt0jfq4Mc7Jo1yxPXL0e8xzM7+yd7Vu5BARWW1lVUOEEBogIyJGVWQDUFtJw+6vU2+3xfx30QAAW5tDPUBQQuEC6AFWS9gVQH+SFCivOadkFVO+K3HZpGSZidqnohTgMY4EiCD4IGPIprl6jCOZAvbkCDHCdBoND+p/fl5Tx/4+0b1950wyRVUe9/eMmGj89hI1ZI7X0gUQGs0N0nOnuEU1SgxIfUMQo9PV3JrssRsF8IUVVllkAIBCc69YBc7QErIFl8BBgt338CTUosrA0yLoECFGyD3f81OxY2HRA8KZnOJmYHPzW/nDo1J1qC7et39+zZCFbg2clodnIPCv1CPBWJPB8OJwMFime0eR++iHedRkVnOV4B/aJO6fopqxYTKjKdjddlQhAD4hgooIG8FRgQQ1C4Aw0IKegY24AwgvBCBg6MQQ8XJMiQJQr5YqWIBwwIFDJSFLLGiI82r7/phkmKotx697wtn5+XQSGZ9yFhSGNaUUEu1Jjsijxz5nSyh0bA/vgvV5HD0AQnXnxrwnz6ETYCjJbvPyE+KcZPf1zTtvVK2xqfk7ttW2J/96MJPClZTCUZ7We1tReK/LavzZzcPVdRfse4cXhveLks3ucofEpeQKE+FgMorInHKFCGJNVnRNMH1HJGnuQhq0cUdIXGeGWFr71eFFcAK7R6PCctXDil66c9nrb4LdBBBgjaA1CQH7IxhPPueSt8MsV+OoCQgnQLYghSLEiWSIgOBAru4xCzpoQvGjaCEjRN2/DuRy81nHl1z9lX95yF98EmKnzV2n3gq5MHvjr59ZlLch9IVLClStp0BTd9H0ZwEQUhRDQaybecIDsgpk2pHYXfXxn9yZgUwzAG5ASXDoVMD9sUI1GBJ8X9BGF2SE7ICRY4T9KpqiQq8Oy4n51cgsIADxrGa+XlMiggnlFOknR6H/YXFVFUI1ihyevFBmkBJRZOeDy0tVrjVo8HjgncQnWQb9sssEARJ1mQADqANogqkg2gXlCcBGGHEyacQgUECbg24L+QAx1QR0FV1XyDAjwOiqJomvbiW9teajgjgwJFKnx4tOPAVyf/zxvvIPdStfInEdKYME9SbiZp6z1NIY1U2hmeCNz2Gv2vrFoOGdD99TpcjhRCFBUVGUZ+5QSAwrcmzDcMo6qqargY53K9TyGE3+9XNe2nP64xYxgHnemQTIEgUYEnxf1cxz8yxsLa2m6fz7nG52oPRAX+yLifmv7+/pyBghCiuDgghCgvK30+HMYmJz7IoCA3fSAHxL5AAMEKX/j95IY4auFCs8/X7PMdswotIHwBSoNMDyQ8UHwDRAgbWJAyAcJIeHvagg88hPFpK/8CAROnrV7Y2CODBaABMOEECJv2QJEQ70WjZscpVU3b4iFrIaHjyK7HFz404HGYO2/Dux+tePvU6u1tq7e3gRU2fHzuvS8v/PFAy3+++S5VgMa7UhVF17WDR1vl9Ac5T5KCFaigghMXZFAgpUH09z/6y9W6pvt83owu2WFxMAAotymRTr8D9iBVkqPn0l4YmBRNU/e8OjtPfgdCh6cX3UhCeto3xgfg6kXG3BuzZuWKCZKd59+uv16zohrZ++Dy2ss9KEQjVQQKzjAF6g4lswI5IKhWo8wKX/l8R3y+r6wNLokmixjADTI9yGPiCQyAFHQLepDvgjOINmiAIwENMnPIeoaTNpzaAwVS2CSHl2MxRVGmTanNmgNSPLG3ae8XDb9DJqQZlzD3vvoPW57c3EqgsOHjs5v3ty959s1b596LPlKaqmqqqmva4oUP7dy49q4ffl9V1SXPvplaVKDKCrIDgohBrtsoj19ZtdzlZTq8DhNC3HbbbUKIQRZhTEYGzv2oqfDAAw8ML0MV8t1iUgzDbPVkFk7I1KGQ4fHN9ZM1q8gPT4qbWaaPjN/nOz9mTLIFPif7uzTtxMSJqHjBs+NmdvKiKIwbN3ZlVdXKKhMXAApUTcEpKqDr9K7iYllXQPvpA36/nA1xxMIF+bYxjg5ED+StcA7AEJAlmuMBEKRSwLsh3wIvyOtBtCErGaRn2KiCRAuoDjbvBsQGcEO7ps0wF2btvp/MyTTLMQUf9DXv7W3a++X7v5t3zxyq3njV+PEr3j61tK71yc2tr+45U/fB19APNE3164rVPkKdNqW2/uVnj3/2DkVWLl74kF9XotGIDRTkSAU5WAFJEKQuGKIf6CDzAcZoMO3yMh1eh0Fdy19WpBMUwtVmLPf48eOHl6EK+W7NeJFAkVm99DvBfFPCmS2x1i0Trhrr40lxOcUkSFeUlRYGFPx+P8+Oy9nJMSigOmZpMCgrCglFBRRUkFs/yNmSqK8AdYGgARqDrDQc9vmwHbEGYAgIDxgj1oH2y5CBw77y+RqljUQLGsiPIhcDbGGTNGT14oTVrkJGB1lvIIcFCkl9XVYGhb/+5WdTL/zuH+1p3LNjw29kRFAUJVhSctcPb3nxvbb/2n0GfBCv62h6PaZNqX1l1fKmDzcTH9DLNX6wCa0oKPeBIhWIFSgDQnZDECuQxmAjhq5eIxqNuL9Sh9GRppZQWamqWl7zHWRc+HbtYiHEtddeO4ysVOC3Gp8UZfPqmQUAhTObYvA+8KS4mWghRDgc7hfijVmzUhTbzYmi0K2qXT7fwuuuMwyDZ8fN7OQSFC6+nhAvVVZCUSBRAU0fXisvR/oDNZN0sgKkBWKFfYEANkQ7HvD7ZXQ44PcjV0LGCIIJBDq4uSXmoAHBB7EI3B+yE0TmiSavl4QNqBfk1yDhgZQGin44WD0QoHD8s3dobR7MoKdxDzpHw49AcoJq6RbyXbP/5M3TnnliUerCjucONwAUWs72OllBDlYgXQFuCKe0QOoCXBI9faK8vOziZTOCRliTFEWV1/K8jhkU0l4+hQaFLQwKaefk4gEyKOSKBlKcp0tVf1Zb6/HoDAoX5yDlKGcxChdfRYj6WEz2PthEBXJAUFHnbcEg5UFAWiBcQPiCHMRA6ECSg0wS4IlktzJnIMkCDg66BWTIMZVOBKE9RBUyTMgkQVkbFDwh08MJj6cuFoOikLYltHt66Diy69abp8UFA/v/Xq/nkfn31r/8bNuhnZ1f7e5t3ps62wLYUVxSfPRUjxMUSFQAJcisQLiQTFro6jX8fv/Fy2YEjQgUWFEYOrPKoDB05sL5Ti4LKKiqyqDgnIuEe/ICCuskUCBRgSIVXisvt7ECNYuScYGIgSIYZGiQx/sCAVIgaCDzRIrx/qIi56PYmYI2CCwokILoAQKGjA5I3HBCw9de72OVFaoVyZh6tXZPCTiyp3HP8c/e+WTr+k+2rj/8x99ja/pwc2rxwPkqPU17590zxwxmfO4tgEJqVrCBgs0TYSOGnj4RCgYTXpTDfSfWJE3T8qoiyCdnRSHtNVNoUGDXQ9opkQ4oMCj0er0/q61VFIVBQZqEVMPcg4IQYkEo9FQkklBUQE0FYgX4ICAtABfgjCCNAR2kGkpKaAM3uLz9IBCAOJFQopBpI+EYCJIaPmw8QQxB6CBDA7ppD6BDScmdPp+iKI/Mv9e5SOdqT2+TGdiYxdl6Gvd8bHWYLPKY6ZEHW7pzwgroT93dJzq6jaKiolTX5rB9LA4KOisKQ2cOGRSGzlw430mBQaFP035WW8uKgnMiku3JCyjM1LQ1VpiCHKlgy4CwxSvUlZYSLjiJAdwg08OOkhLbRiSRbLCruJgesnEG9tt2JrybkCcSkgQAIiE3IKyyqaTECh1QcxjJmAUQJHvKhSO77vrh9xWrJcTBlm5sqVkhtSdCjnns7hMjuyxjOBwWol/+0Z/XMSsKyb7gaH+hQcGKUeBwObJ/6kGBQQExCl6vhxWF1PNCj+YeFMxTW2EKsqhAhRqpBBOVa4QbYkNZGakLRAw0IHSA3vCHYFDeZIyQBQl5vwwZ8thGG7a7BBYJB06SsGGE7NQg4YECIOpiMSQlFqwdVDImcO6nDpOqZsoJHzV2pmAFOQ8CrCATAwU82hwTR478ma7CETYQwvSqCCG+Of6BvPIBnZzTI9NeQkKIYEmJoihzv1eWv5qMlE/RumXCX43xaprGOatppwbVlvCRqa2ubq8oTxGHmJOHTkycWBMKcXqkm6nBMfkCheWRyFPWRqKCHKyAeAU5FUJ2RgAaZG6A3kC3yK7M6PYPwSBog5iDBjJzyONtFo7QrQ07gBS2oAqbMiFzA0EDiOFQUdFDZWVCiFtvnpbbAAXnqp/pnt6mPY8vfEjTVEVVH132AvpJEiuQqJAwXuH0hb5klEDE0Nkj2ruMz/Z/5v4yHV5HCiGmfe/mwjR6ACug4NI999wzvAxVyHcrhLhp+kxd068a6y0AKDTXT9Y9HiEET4qbWaaPTAEKLvWq6slrrgGd8Oy4mZ38pEeagoKYoar1sRiJCglxAaBgwwUQwxtlZdgIGlIPiCGyG7hnDgIOG1I4MYJECBIeiBv2BQKHYtXWDIlnnliU6UKev+N7mvZ+vOX1u374fU1TVUX9wY/v+6ix873DHXLvaTlYQWYFucYzcCE1NAAURnAJVcMwPN4w/ejP3wAlnEewJV1+l7k5zDAMTdf2vDqbfvrnZbAptnn1zViK3LwrPgYWMGdH03bnuYTzBVV9I95smi3v0gJ5URRQsnumpoEVgAvPh8OEC2sqKylkwaYuOLkB6GADCCKJtIMNGTIHlAyZS1LAh5MwABAyN0B7sIkN9TU1+B7ZuXFtdsGGucWFnqa9jR9senj+vQO9oFTt/oeXgBIIFGRckHUFJy7YnBHEDe1dBukNn+3/zDAM3aq47vJiHUaHCSF8Pp+mFiKe8ZvjH9A1faQWpcjhpGNSVEV5+l+nntkUywsiWJWe2+KdpnlS3E8fZkdRlIW1tXmtudQVCNw+dqymaTw77mcnL6CAlxdCzPH762tqnrMQAUkQK6uq1lRW/ndZ2W/Lyl4rLwcuJIQGWW+g8Wvl5QhucN4iOjLr27TAgVgK+TYZTGwKhSi6IiE3NJSUwO+gqerlDVDotfhgxdJFciVHTdOWPPfWroPHt3x+3tZ7mhwQtthGcIOtKFMyXAA3fPrZpx7d4/5KHV5HCiHKykoVRQkEJ+ZPS8CZS0q/I4SYNGnS8DJR4d8tTUp+20xviX26flpNlel34ElxP8s0O5qqnpw4MX+scGjqVHiFeHbcz04eQQFvAoFdD5aWLgiFsD1YWur1erxezxy/f0EotDpWXR+LQWOwKQ2IfEx9u66iApoEhUnKEgURRrIByAOP2igkLXM42SIFOlBIxLZgcFdpKeSEubffclnkhJ6mPY0fbFq3ctm8e+agq6RctLH+w5YNH59D4+mErCDjwtFTPbIzwskKziYRAIWDR1vdX6bD7kghxAMPPKAoSr4bSH5rwvyR2qo755NOkzIgKmTY58mlAkFyAjuDMppBmh1N1/MnKrSHgneMG8cfmYymJl8xCs43AWeErum6ptGjQghd0xDQsD4WQ7Qj+kTI3JDp+CXLryFrFbJikRo7nI8SiKRADRtSEEAQN5DzAq4K8jt8snV9rjwIX77/O2wtn7597nDDucMNHUd2dR/dja3jyK5zhxtOH9zx8ZbX161cRv0kFUVBaUi/33/FFeM0MzZB3fL5+Vf3nJVZ4b3DHbTZYhud2RBpvRJAh5ENCgDBQKAo36JCIGj2wbvyyivoY8WDFBZAayhFUWJhrbl+ssu1P6PD9r0+rbrS/KbjSUkxEQkfotZQuq6fmDgxJwkO8km6NO3Q1KmqpvFHJqH9U+zMu6KQ4rXxEBhihqqut+o5yqEM1FwqT4OMEAT84SQJUjJkkpDRQeaGutLSd4PBm3XdjPKdUosiyoNnhe6ju23CABQC002uaaQWDMQfWP+ZwYpWO6jFCx9q+nAzfBBOUHDqCglDFggXErokCB1kvWEEZz3QhU2iQp7yJCujs3TNvJbSfsr4ANukKIoy/TvB1i057jfdVDd52jVBzfr9wzbP1AJCiPnzBxSy62KxnLPCoalTq0tKeHYynZfCKQqp3xlYYY7fvy5ez5ECGgY/yAdkOAnDhhGyDmGDhjU1MevnpvHME4ty6Hd45olF06aYtcakfyYKWIKBAizAQ7quUzuozq92U3LmupXLFEW5de68V/ecxQZRwQ0ryM4IGRoIEZyDDe9+NOJXOCRqm121fFU5ZwVQgqIo075nBtjzP5cWwKSYPys1zWw5vXVMRoJBioMHaifoOk+Ky7lwHiaEmDBhAlwD18ViOaypcGLixFgwaKZz8UfGafd0ey6/okDvEMGP6+IFGFCGwf3tyqoqOpjwAgkXVNFhTTj8TFUVPZrpgJiD0jdoDwYyQMjaA8VA1JWWkpyQq46Rfc17e5vNOs09jXva//R+04eb619+9pVVy595YtErq5YvXvjQM08swnjnxrXtf3qfyEBWMs4dbrjphklo6/BSw5mXGs6kZQWbtCDnRMisQGNbNMN/v/Oh7Ieiy2CEDeiLrzh0TQ4rOl89abHPH0H2+QizWAH+HLCCpus1Vfqm52e25SJY4fSWK/990Y2IkmN0G8wk4iNjnkGI386a1T5mjOw+yG7cPmbMv02eDIcgz04WszOEQAGz+GBpaXas8Fw4vC4aNbeaGmyrY9XLo1HakGhQXl62IBRaHo0+FY2uqYmtq6lZX1OzLhrF7X9YlacJOGgACqHbZIRh4waqR0lBEsujUfyZr6xaLq/TeRr3Nrvq8tDTvPfh+feqqvrd6TM3fHxu9fa21KxAqRDOwAWKYKABgYJtsOHdj7K4XofvU0z/a+ianOgKldFZPn9k+Jpi6LxzIUQsrM/9XtkgfRBNdZOnfyc0dP6ukfFOoDTXVlcPxgfRq6rwOIzUTOzCzPXQAgUsojNUdbm13mOdRpFH5+1TkciLsep1NTX/d/X9ebjS1mEI4pV8C4MighIvRI/SQ34rEQMYsa6m5mXLFUK4kGKQEB1s3FAfi0FO8Pv9ZnRCVr2a8oEU6CUNOWH19jZsMitQbKPshpATImRiSKg0kN5ATooX39oG+xfmQh8Kr4ISTINkhXD1bN2KcRkKf9EIeA9mkR/V9EFkHdvYVDfZrNbMk5KHq8GaHRXxCp2alqmc0OXzfXHjjbFgEFHzeXiDo+WUQxEUoEijC+VqCwXWRaMmE1i3a2pikAoeKitLNksmimqa3/oXCgbLy8sqKsrlg5G0iQNkwqBEDJCEpqoPlpaurDZfWnZtpCAGPGTjhufD4dfKy39kNUuEsNbTuMflz/18kIF8zu0b1yIQ8rvTb17x9qkVx1NVjQAACklJREFUb59KywppcYG4IQU0/Oeb76qKUlwckOdlBI/leIXs3BDfrl1cUvqd/v5+wzBYPs3JpXIxXkHXY2H96UU3ZoQLzfWT/33RjaFgUOO4hJzMx6UnIbedEEJV1Z/V1p6YONElLnRq2hdTp/7T9dfjlPyRudS0Gd8bcqBAfwH99Kc9hRkIIUpKim2vhRzONTWxF2PVK6uqlkci8vaUdTcFPZjcUI2azQMnFkI88g/zDv/x9z0udIWPt65ft3LZl+//zs3BMgSkHvc2792+4Tc33TBJU7XvTr/5yd/uAyg4WYFCFmRpwYkLcEk4HRMJuWG0gQLQc8KECVjpvb6q4tA1365dnLYc09WTFhMiQINhSrB9PAdzlzzisC1wYfd/zW7bMiZh7ELb5tjpLVduXn3z04turKkyK4bxpAzG/qmfS6ygKgqq7/ystnb37NntY8acS9Q7qn3MmPYxY96YPXvhddfRD04O5UltZDePDl1QcPPuC3YMUQsiLpdb8Q0vVkdlXJDHNnRYF4vNlApI0NsWQtz/tz/qOLIrxYre07QHZQ9URZl3z5y6tau6j+5OcbzLh7qO7qaCzSYlbG6lzYYL8EHIrGDDhYTEAMdEQvcEuOE/33xXGU2KgjzppSHTn40FxuurClfP/taE+Vde/aurJz0u31ZGZ1E4Ag6uqqqi8/AghxYQQsiTomnaX43x3jW9bNPzM23btGuCV4314aV5UnI4BSlORbNjFn23Wm0VFweui8XemD1b3n47e3YsGKSfeTw7KUya6UMMCplabOB4IoZ1NTXAAhkU5PH6WGyGqmqqmvCVhBC3zZqeMBOBlvy6tasGEh3NlC71rh9+f93KZY0fbOo+mk2gQ8eRXXVrV1HNJWgJv9h4cmldUlag8EYbLjiJQS7TJLOCbfze4Y5RCwq4DIQQ1dVmZCuIwTAMM5HVmt+BW/OaMe/jADoYT+HbfFiAJgVat2l/1V6GRFEUnpR8GD/tOWl2CLKBAs5b/sikNWamBzAoZGox+/FCiAdLS/8jVi3DAY1frI7OsIoZpEoFFGLxP/1jalZoO7Tz8YUPoRACFVC66YZJ0BhaPn079dPNFMp4WwcqzaSq6q1z73tycysoYWldq8wKT25utUkLMi44iSEZNCRDB9P1oGlygIjdsqPjPtofh5P8+8EPfjA6zDC0/kqelKE1H5e+G56dS+1RiHsMCjmwMtJ4FoRCa2pihAjLI5HV1dE7zRaCaipKGHh9sWLporThjW2Hdta//Ozc22+xEYOiKJAZ6tau+njL640fbGr8YNPpgztaPn37y/d/t2PDb+rWrrK1ffruNDMoAZTwi40nZVaQccHJCjZcSEgMzpJNNozY8vn5X63/RFPVEV9zKQeXF5+CLcAWYAtcVgswKOTG/JQu8fNwJTwRa2LVD5aWukAE8w0ANX76D/PI3ZB60P6n93duXHvfT+aAGCzNgoSG5APV1LKBCEvrTCHBtkFUSCEtyHGOTmKgaAaiBxoQOhAxmIqCqnq9I7aBZG4uLD4LW4AtwBa43BZgUMjxDCB24cHSUiRDZnh28cwTj6VGBNujPY17jn/2ziurlt/3kzm6rhM3yOigmpKGfuvceY8uewESwr+8eVzeUuBCQnUBMgNlUdJABoWEYxkXHv3l6tEZzJjhJcGHswXYAmyBy2wBBoXLPAGOlzdZoafRVUVFGRp6m/e2/+n9tkM7P9m6/pOt63ds+M24cWPBDUueewsigQwHNP7FxpP/8ubx7FghoWOCuIEGCaHh/ocXK4qCUHOHEXgHW4AtwBZgCwwVCzAoDJWZoPfhJmdSRgTn2Gr9sOeqq65SFMWje57c3EpYkGJgY4VkUQvOLErCBecArGBzWFg+i7Zb597r0i9DluEBW4AtwBZgCxTeAgwKhbd5+ldEzmTjB5ucEOByD1pBoipzCjhwPmTDBTlqwRm7QNCAgRMUnHuADi++1+bzedMbgo9gC7AF2AJsgcttAQaFyz0DSV7frCY2pfaZJx47d7jBJRzQYSuWLkIO5K1z73OiQIo9cEM4PRE2dYHowQYKae8SN6ze3sb5DklmnnezBdgCbIGhZQEGhaE1H7Z3A1x4ZdXy45+946aJVPfR3Y//0z+i5/qtc+9bWufK6eBEh4SBC8lwgbjBOUiGDr9a/wk3c7PNNd9lC7AF2AJD0wIMCkNzXuzvSghx309+9MnW9cnqN/c07al/+dm77/hrtBLQNT1rSgA32HwQzrtOLHC558nNrfc/vFj3cGKkfZb5PluALcAWGIIWYFAYgpOS9C2RP+KTrevbDu1sO7Tz8B9/X7d21Yqli4AIKMmga/rD8+c5dYLs9jgRwf0eVGtwAMTJm6bPZNdD0mnmB9gCbAG2wFCyAIPCUJqNzN8LKjXZfp0LIcrLy/952QuLn33zV+s/+X9/byZA5mRzjwgpjnz6D62abv7L/M/lZ7AF2AJsAbZAoS3AoFBoixfs9czGNpq5Ivt8vvsfXmwWbP7tvl+t/+TJza2/2nTyFxtPDAYdwAEJwx5TIAIeWvLcWwUzAr8QW4AtwBZgCwzSAgwKgzTg0H26EKKoqMiqLa3rmoYea2jSqmnabXfP+/tHlvz9I0sGAGLTySc3m02hBkMPeO7SOvNUJpFYaLL42Tcf/eXq+x9ejJf7+0eW3DR95tC1Gr8ztgBbgC3AFrjUAgwKl9pjhN6jhu7Ov28AICxHgBD9f//Ikn9e9gLWeNwuee6tJc+9RTzxKwsp5HQGYgIAAeIP4A0xDMPqiaV79IHQRRNc2OngnAbewxZgC7AFhqoFGBSG6swU5H1BdbC9lLO/OwIPzXgITbOVUzQXfit/wTAM1WpHRRwghKioKLednO+yBdgCbAG2wPCyAIPC8JqvvL9bIYTf+uf1evx+v9frsaIc0lRRFELg+KKiory/RX4BtgBbgC3AFiigBRgUCmhsfim2AFuALcAWYAsMNwswKAy3GeP3yxZgC7AF2AJsgQJagEGhgMbml2ILsAXYAmwBtsBwswCDwnCbMX6/bAG2AFuALcAWKKAFGBQKaGx+KbYAW4AtwBZgCww3CzAoDLcZ4/fLFmALsAXYAmyBAlqAQaGAxuaXYguwBdgCbAG2wHCzAIPCcJsxfr9sAbYAW4AtwBYooAUYFApobH4ptgBbgC3AFmALDDcLMCgMtxnj98sWYAuwBdgCbIECWoBBoYDG5pdiC7AF2AJsAbbAcLMAg8JwmzF+v2wBtgBbgC3AFiigBRgUCmhsfim2AFuALcAWYAsMNwswKAy3GeP3yxZgC7AF2AJsgQJagEGhgMbml2ILsAXYAmwBtsBwswCDwnCbMX6/bAG2AFuALcAWKKAFGBQKaGx+KbYAW4AtwBZgCww3CzAoDLcZ4/fLFmALsAXYAmyBAlqAQaGAxuaXYguwBdgCbAG2wHCzAIPCcJsxfr9sAbYAW4AtwBYooAUYFApobH4ptgBbgC3AFmALDDcLMCgMtxnj98sWYAuwBdgCbIECWuD/B5J/ngW+lPBCAAAAAElFTkSuQmCC;" vertex="1" parent="7">
                    <mxGeometry x="500" y="120" width="222.33" height="115" as="geometry"/>
                </mxCell>
            </root>
        </mxGraphModel>
    </diagram>
</mxfile>